<svg version="1.1" viewBox="0.0 0.0 537.6745406824147 318.98950131233596" fill="none" stroke="none" stroke-linecap="square" stroke-miterlimit="10" xmlns:xlink="http://www.w3.org/1999/xlink" xmlns="http://www.w3.org/2000/svg"><clipPath id="p.0"><path d="m0 0l537.67456 0l0 318.9895l-537.67456 0l0 -318.9895z" clip-rule="nonzero"/></clipPath><g clip-path="url(#p.0)"><path fill="#000000" fill-opacity="0.0" d="m0 0l537.67456 0l0 318.9895l-537.67456 0z" fill-rule="evenodd"/><path fill="#cfe2f3" d="m211.6693 76.69292l0 0c0 -31.310635 25.382278 -56.692917 56.692917 -56.692917l0 0c15.035889 0 29.455963 5.972986 40.08792 16.604969c10.631989 10.631985 16.60498 25.052048 16.60498 40.087948l0 0c0 31.31063 -25.382294 56.692917 -56.6929 56.692917l0 0c-31.310638 0 -56.692917 -25.382286 -56.692917 -56.692917z" fill-rule="evenodd"/><path stroke="#000000" stroke-width="1.0" stroke-linejoin="round" stroke-linecap="butt" d="m211.6693 76.69292l0 0c0 -31.310635 25.382278 -56.692917 56.692917 -56.692917l0 0c15.035889 0 29.455963 5.972986 40.08792 16.604969c10.631989 10.631985 16.60498 25.052048 16.60498 40.087948l0 0c0 31.31063 -25.382294 56.692917 -56.6929 56.692917l0 0c-31.310638 0 -56.692917 -25.382286 -56.692917 -56.692917z" fill-rule="evenodd"/><path fill="#000000" d="m248.6364 63.77291l0 -10.484375l3.171875 0l1.90625 7.15625l1.890625 -7.15625l3.1718597 0l0 10.484375l-1.96875 0l0 -8.265625l-2.0781097 8.265625l-2.046875 0l-2.078125 -8.265625l0 8.265625l-1.96875 0zm20.69313 -1.328125q0.78125 0.5625 1.6875 0.890625l-0.78125 1.484375q-0.46875 -0.140625 -0.9375 -0.390625q-0.09375 -0.046875 -1.40625 -0.921875q-1.03125 0.4375 -2.28125 0.4375q-2.421875 0 -3.796875 -1.421875q-1.359375 -1.421875 -1.359375 -4.0q0 -2.5625 1.375 -3.984375q1.375 -1.4375 3.71875 -1.4375q2.34375 0 3.703125 1.4375q1.375 1.421875 1.375 3.984375q0 1.359375 -0.390625 2.390625q-0.28125 0.796875 -0.90625 1.53125zm-1.703125 -1.203125q0.40625 -0.46875 0.609375 -1.140625q0.203125 -0.6875 0.203125 -1.578125q0 -1.8125 -0.8125 -2.703125q-0.796875 -0.90625 -2.09375 -0.90625q-1.28125 0 -2.09375 0.90625q-0.8125 0.890625 -0.8125 2.703125q0 1.84375 0.8125 2.765625q0.8125 0.90625 2.03125 0.90625q0.46875 0 0.875 -0.15625q-0.65625 -0.421875 -1.3125 -0.65625l0.59375 -1.203125q1.046875 0.359375 2.0 1.0625zm7.009491 2.53125l0 -8.71875l-3.109375 0l0 -1.765625l8.34375 0l0 1.765625l-3.109375 0l0 8.71875l-2.125 0zm8.952606 0l0 -8.71875l-3.109375 0l0 -1.765625l8.34375 0l0 1.765625l-3.109375 0l0 8.71875l-2.125 0z" fill-rule="nonzero"/><path fill="#000000" d="m245.81714 71.288536l4.1875 0q1.25 0 1.859375 0.109375q0.609375 0.09375 1.09375 0.421875q0.484375 0.328125 0.796875 0.875q0.328125 0.546875 0.328125 1.234375q0 0.734375 -0.40625 1.359375q-0.390625 0.609375 -1.0625 0.90625q0.953125 0.28125 1.46875 0.953125q0.515625 0.671875 0.515625 1.578125q0 0.71875 -0.328125 1.40625q-0.328125 0.671875 -0.90625 1.078125q-0.578125 0.390625 -1.421875 0.484375q-0.53125 0.0625 -2.5625 0.078125l-3.5625 0l0 -10.484375zm2.109375 1.734375l0 2.4375l1.390625 0q1.234375 0 1.546875 -0.046875q0.53125 -0.0625 0.84375 -0.375q0.3125 -0.3125 0.3125 -0.8125q0 -0.484375 -0.265625 -0.78125q-0.265625 -0.3125 -0.796875 -0.375q-0.3125 -0.046875 -1.8125 -0.046875l-1.21875 0zm0 4.171875l0 2.8125l1.96875 0q1.140625 0 1.453125 -0.0625q0.46875 -0.09375 0.765625 -0.421875q0.296875 -0.328125 0.296875 -0.890625q0 -0.46875 -0.234375 -0.796875q-0.21875 -0.328125 -0.65625 -0.484375q-0.4375 -0.15625 -1.875 -0.15625l-1.71875 0zm10.381165 4.578125l-2.015625 0l0 -7.59375l1.859375 0l0 1.078125q0.484375 -0.765625 0.859375 -1.0q0.390625 -0.25 0.875 -0.25q0.6875 0 1.328125 0.375l-0.625 1.75q-0.5 -0.328125 -0.9375 -0.328125q-0.421875 0 -0.71875 0.234375q-0.296875 0.234375 -0.46875 0.84375q-0.15625 0.609375 -0.15625 2.546875l0 2.34375zm3.3129883 -3.90625q0 -1.0 0.484375 -1.9375q0.5 -0.9375 1.40625 -1.421875q0.90625 -0.5 2.015625 -0.5q1.71875 0 2.828125 1.125q1.109375 1.109375 1.109375 2.8125q0 1.734375 -1.125 2.875q-1.109375 1.125 -2.796875 1.125q-1.046875 0 -2.0 -0.46875q-0.9375 -0.46875 -1.4375 -1.375q-0.484375 -0.921875 -0.484375 -2.234375zm2.046875 0.109375q0 1.125 0.53125 1.734375q0.546875 0.59375 1.34375 0.59375q0.78125 0 1.3125 -0.59375q0.53125 -0.609375 0.53125 -1.75q0 -1.125 -0.53125 -1.71875q-0.53125 -0.609375 -1.3125 -0.609375q-0.796875 0 -1.34375 0.609375q-0.53125 0.59375 -0.53125 1.734375zm7.2963867 3.796875l0 -10.484375l2.0 0l0 5.5625l2.359375 -2.671875l2.484375 0l-2.609375 2.765625l2.796875 4.828125l-2.171875 0l-1.921875 -3.40625l-0.9375 0.96875l0 2.4375l-2.0 0zm12.619843 -2.421875l2.0 0.34375q-0.375 1.09375 -1.21875 1.671875q-0.828125 0.578125 -2.078125 0.578125q-1.984375 0 -2.9375 -1.296875q-0.75 -1.03125 -0.75 -2.625q0 -1.875 0.984375 -2.9375q0.984375 -1.078125 2.5 -1.078125q1.6875 0 2.671875 1.125q0.984375 1.109375 0.9375 3.421875l-5.03125 0q0.015625 0.890625 0.484375 1.390625q0.46875 0.5 1.15625 0.5q0.46875 0 0.78125 -0.25q0.328125 -0.265625 0.5 -0.84375zm0.109375 -2.03125q-0.015625 -0.875 -0.453125 -1.328125q-0.421875 -0.453125 -1.03125 -0.453125q-0.671875 0 -1.09375 0.484375q-0.421875 0.46875 -0.421875 1.296875l3.0 0zm5.572998 4.453125l-2.015625 0l0 -7.59375l1.859375 0l0 1.078125q0.484375 -0.765625 0.859375 -1.0q0.390625 -0.25 0.875 -0.25q0.6875 0 1.328125 0.375l-0.625 1.75q-0.5 -0.328125 -0.9375 -0.328125q-0.421875 0 -0.71875 0.234375q-0.296875 0.234375 -0.46875 0.84375q-0.15625 0.609375 -0.15625 2.546875l0 2.34375z" fill-rule="nonzero"/><path fill="#000000" d="m248.33171 102.85104l-1.390625 0q-1.09375 -1.640625 -1.671875 -3.421875q-0.5625 -1.78125 -0.5625 -3.453125q0 -2.078125 0.703125 -3.921875q0.625 -1.59375 1.5625 -2.953125l1.375 0q-0.984375 2.171875 -1.359375 3.703125q-0.359375 1.515625 -0.359375 3.21875q0 1.171875 0.21875 2.40625q0.21875 1.21875 0.59375 2.328125q0.25 0.734375 0.890625 2.09375zm8.1618805 -8.4375l-1.9687347 0.359375q-0.109375 -0.59375 -0.46875 -0.890625q-0.34375 -0.296875 -0.90625 -0.296875q-0.75 0 -1.203125 0.515625q-0.453125 0.515625 -0.453125 1.734375q0 1.359375 0.453125 1.921875q0.453125 0.546875 1.21875 0.546875q0.578125 0 0.9375 -0.328125q0.375 -0.328125 0.515625 -1.109375l1.9843597 0.328125q-0.3125 1.359375 -1.1874847 2.0625q-0.875 0.6875 -2.328125 0.6875q-1.671875 0 -2.671875 -1.046875q-0.984375 -1.0625 -0.984375 -2.921875q0 -1.875 0.984375 -2.921875q1.0 -1.046875 2.703125 -1.046875q1.390625 0 2.203125 0.59375q0.82810974 0.59375 1.1718597 1.8125zm1.526123 5.359375l0 -10.484375l2.015625 0l0 10.484375l-2.015625 0zm3.6188354 -3.90625q0 -1.0 0.484375 -1.9375q0.5 -0.9375 1.40625 -1.421875q0.90625 -0.5 2.015625 -0.5q1.71875 0 2.828125 1.125q1.109375 1.109375 1.109375 2.8125q0 1.734375 -1.125 2.875q-1.109375 1.125 -2.796875 1.125q-1.046875 0 -2.0 -0.46875q-0.9375 -0.46875 -1.4375 -1.375q-0.484375 -0.921875 -0.484375 -2.234375zm2.046875 0.109375q0 1.125 0.53125 1.734375q0.546875 0.59375 1.34375 0.59375q0.78125 0 1.3125 -0.59375q0.53125 -0.609375 0.53125 -1.75q0 -1.125 -0.53125 -1.71875q-0.53125 -0.609375 -1.3125 -0.609375q-0.796875 0 -1.34375 0.609375q-0.53125 0.59375 -0.53125 1.734375zm12.358887 3.796875l0 -1.140625q-0.40625 0.609375 -1.09375 0.96875q-0.671875 0.34375 -1.421875 0.34375q-0.765625 0 -1.375 -0.328125q-0.609375 -0.34375 -0.875 -0.953125q-0.265625 -0.609375 -0.265625 -1.6875l0 -4.796875l2.0 0l0 3.484375q0 1.609375 0.109375 1.96875q0.109375 0.359375 0.40625 0.578125q0.296875 0.203125 0.75 0.203125q0.515625 0 0.921875 -0.28125q0.40625 -0.28125 0.546875 -0.703125q0.15625 -0.421875 0.15625 -2.046875l0 -3.203125l2.015625 0l0 7.59375l-1.875 0zm10.921356 0l-1.859375 0l0 -1.109375q-0.46875 0.640625 -1.109375 0.96875q-0.625 0.3125 -1.265625 0.3125q-1.3125 0 -2.25 -1.046875q-0.9375 -1.0625 -0.9375 -2.953125q0 -1.9375 0.90625 -2.9375q0.921875 -1.0 2.3125 -1.0q1.265625 0 2.203125 1.046875l0 -3.765625l2.0 0l0 10.484375zm-5.359375 -3.96875q0 1.21875 0.328125 1.765625q0.5 0.78125 1.359375 0.78125q0.703125 0 1.1875 -0.578125q0.484375 -0.59375 0.484375 -1.765625q0 -1.3125 -0.46875 -1.890625q-0.46875 -0.578125 -1.203125 -0.578125q-0.71875 0 -1.203125 0.578125q-0.484375 0.5625 -0.484375 1.6875zm6.7963867 7.046875q0.59375 -1.265625 0.828125 -1.953125q0.25 -0.671875 0.453125 -1.5625q0.203125 -0.890625 0.296875 -1.6875q0.109375 -0.796875 0.109375 -1.625q0 -1.703125 -0.375 -3.21875q-0.359375 -1.53125 -1.328125 -3.703125l1.359375 0q1.078125 1.546875 1.671875 3.265625q0.609375 1.71875 0.609375 3.5q0 1.5 -0.46875 3.203125q-0.546875 1.921875 -1.78125 3.78125l-1.375 0z" fill-rule="nonzero"/><path fill="#cfe2f3" d="m5.0 156.69292l0 0c0 -31.310638 25.382282 -56.692917 56.692913 -56.692917l0 0c15.0358925 0 29.45596 5.9729843 40.08794 16.604973c10.631989 10.631981 16.604973 25.05204 16.604973 40.087944l0 0c0 31.310623 -25.382278 56.692917 -56.692913 56.692917l0 0c-31.31063 0 -56.692913 -25.382294 -56.692913 -56.692917z" fill-rule="evenodd"/><path stroke="#000000" stroke-width="1.0" stroke-linejoin="round" stroke-linecap="butt" d="m5.0 156.69292l0 0c0 -31.310638 25.382282 -56.692917 56.692913 -56.692917l0 0c15.0358925 0 29.45596 5.9729843 40.08794 16.604973c10.631989 10.631981 16.604973 25.05204 16.604973 40.087944l0 0c0 31.310623 -25.382278 56.692917 -56.692913 56.692917l0 0c-31.31063 0 -56.692913 -25.382294 -56.692913 -56.692917z" fill-rule="evenodd"/><path fill="#000000" d="m49.117863 157.91354l2.046875 0.65625q-0.46875 1.71875 -1.578125 2.546875q-1.09375 0.828125 -2.78125 0.828125q-2.078125 0 -3.4375 -1.421875q-1.34375 -1.421875 -1.34375 -3.90625q0 -2.609375 1.359375 -4.0625q1.359375 -1.453125 3.5625 -1.453125q1.921875 0 3.125 1.140625q0.71875 0.671875 1.0625 1.9375l-2.09375 0.5q-0.1875 -0.828125 -0.78125 -1.296875q-0.578125 -0.46875 -1.421875 -0.46875q-1.171875 0 -1.90625 0.84375q-0.71875 0.828125 -0.71875 2.703125q0 1.984375 0.71875 2.84375q0.71875 0.84375 1.859375 0.84375q0.84375 0 1.453125 -0.53125q0.609375 -0.546875 0.875 -1.703125zm3.8498993 3.859375l0 -10.484375l2.015625 0l0 10.484375l-2.015625 0zm4.0719757 -8.625l0 -1.859375l2.015625 0l0 1.859375l-2.015625 0zm0 8.625l0 -7.59375l2.015625 0l0 7.59375l-2.015625 0zm8.4782295 -2.421875l2.0 0.34375q-0.375 1.09375 -1.21875 1.671875q-0.828125 0.578125 -2.078125 0.578125q-1.9843788 0 -2.9375038 -1.296875q-0.75 -1.03125 -0.75 -2.625q0 -1.875 0.984375 -2.9375q0.984375 -1.078125 2.5000038 -1.078125q1.6875 0 2.671875 1.125q0.984375 1.109375 0.9375 3.421875l-5.031254 0q0.015625 0.890625 0.484375 1.390625q0.46875 0.5 1.1562538 0.5q0.46875 0 0.78125 -0.25q0.328125 -0.265625 0.5 -0.84375zm0.109375 -2.03125q-0.015625 -0.875 -0.453125 -1.328125q-0.421875 -0.453125 -1.03125 -0.453125q-0.6718788 0 -1.0937538 0.484375q-0.421875 0.46875 -0.421875 1.296875l3.0000038 0zm10.557358 4.453125l-2.015625 0l0 -3.875q0 -1.234375 -0.125 -1.59375q-0.125 -0.359375 -0.421875 -0.5625q-0.296875 -0.203125 -0.703125 -0.203125q-0.515625 0 -0.9375 0.296875q-0.40625 0.28125 -0.5625 0.75q-0.15625 0.46875 -0.15625 1.75l0 3.4375l-2.015625 0l0 -7.59375l1.875 0l0 1.109375q1.0 -1.28125 2.5 -1.28125q0.671875 0 1.21875 0.234375q0.546875 0.234375 0.828125 0.609375q0.296875 0.375 0.40625 0.84375q0.109375 0.46875 0.109375 1.359375l0 4.71875zm5.5151215 -7.59375l0 1.59375l-1.375 0l0 3.0625q0 0.9375 0.03125 1.09375q0.046875 0.140625 0.1875 0.25q0.140625 0.09375 0.34375 0.09375q0.28125 0 0.8125 -0.1875l0.171875 1.5625q-0.703125 0.296875 -1.59375 0.296875q-0.546875 0 -0.984375 -0.171875q-0.421875 -0.1875 -0.640625 -0.46875q-0.203125 -0.296875 -0.28125 -0.796875q-0.0625 -0.359375 -0.0625 -1.421875l0 -3.3125l-0.921875 0l0 -1.59375l0.921875 0l0 -1.515625l2.015625 -1.171875l0 2.6875l1.375 0z" fill-rule="nonzero"/><path fill="#000000" fill-opacity="0.0" d="m101.78085 116.60497l109.88977 -39.905518" fill-rule="evenodd"/><path stroke="#000000" stroke-width="1.0" stroke-linejoin="round" stroke-linecap="butt" d="m107.420525 114.55698l98.610435 -35.809525" fill-rule="evenodd"/><path fill="#000000" stroke="#000000" stroke-width="1.0" stroke-linecap="butt" d="m106.85673 113.00444l-3.7017593 3.101532l4.829338 0.0035324097z" fill-rule="evenodd"/><path fill="#000000" stroke="#000000" stroke-width="1.0" stroke-linecap="butt" d="m206.59476 80.29999l3.701767 -3.101532l-4.8293457 -0.003540039z" fill-rule="evenodd"/><path fill="#cfe2f3" d="m418.4987 156.69292l0 0c0 -31.310638 25.382294 -56.692917 56.6929 -56.692917l0 0c15.035919 0 29.455963 5.9729843 40.08795 16.604973c10.631958 10.631981 16.60498 25.05204 16.60498 40.087944l0 0c0 31.310623 -25.382294 56.692917 -56.692932 56.692917l0 0c-31.310608 0 -56.6929 -25.382294 -56.6929 -56.692917z" fill-rule="evenodd"/><path stroke="#000000" stroke-width="1.0" stroke-linejoin="round" stroke-linecap="butt" d="m418.4987 156.69292l0 0c0 -31.310638 25.382294 -56.692917 56.6929 -56.692917l0 0c15.035919 0 29.455963 5.9729843 40.08795 16.604973c10.631958 10.631981 16.60498 25.05204 16.60498 40.087944l0 0c0 31.310623 -25.382294 56.692917 -56.692932 56.692917l0 0c-31.310608 0 -56.6929 -25.382294 -56.6929 -56.692917z" fill-rule="evenodd"/><path fill="#000000" d="m460.37054 133.28854l3.875 0q1.296875 0 1.984375 0.1875q0.921875 0.28125 1.578125 0.984375q0.671875 0.6875 1.015625 1.6875q0.34375 1.0 0.34375 2.484375q0 1.296875 -0.328125 2.234375q-0.390625 1.140625 -1.125 1.84375q-0.546875 0.546875 -1.484375 0.84375q-0.703125 0.21875 -1.875 0.21875l-3.984375 0l0 -10.484375zm2.109375 1.765625l0 6.953125l1.59375 0q0.875 0 1.28125 -0.109375q0.515625 -0.125 0.84375 -0.421875q0.34375 -0.3125 0.5625 -1.015625q0.21875 -0.703125 0.21875 -1.921875q0 -1.21875 -0.21875 -1.859375q-0.21875 -0.65625 -0.609375 -1.015625q-0.375 -0.375 -0.96875 -0.5q-0.453125 -0.109375 -1.75 -0.109375l-0.953125 0zm9.974884 3.4375l-1.828125 -0.328125q0.296875 -1.109375 1.046875 -1.625q0.765625 -0.53125 2.234375 -0.53125q1.359375 0 2.015625 0.3125q0.65625 0.3125 0.921875 0.8125q0.265625 0.484375 0.265625 1.796875l-0.015625 2.34375q0 1.0 0.09375 1.484375q0.09375 0.46875 0.359375 1.015625l-1.984375 0q-0.078125 -0.203125 -0.203125 -0.59375q-0.046875 -0.171875 -0.0625 -0.234375q-0.515625 0.5 -1.109375 0.75q-0.578125 0.25 -1.25 0.25q-1.171875 0 -1.859375 -0.640625q-0.671875 -0.640625 -0.671875 -1.609375q0 -0.640625 0.3125 -1.140625q0.3125 -0.515625 0.859375 -0.78125q0.5625 -0.265625 1.609375 -0.46875q1.40625 -0.265625 1.953125 -0.484375l0 -0.203125q0 -0.578125 -0.296875 -0.828125q-0.28125 -0.25 -1.078125 -0.25q-0.53125 0 -0.84375 0.21875q-0.296875 0.203125 -0.46875 0.734375zm2.6875 1.625q-0.390625 0.140625 -1.234375 0.328125q-0.828125 0.171875 -1.09375 0.34375q-0.390625 0.265625 -0.390625 0.703125q0 0.421875 0.3125 0.734375q0.3125 0.296875 0.8125 0.296875q0.53125 0 1.03125 -0.359375q0.359375 -0.265625 0.484375 -0.65625q0.078125 -0.265625 0.078125 -0.984375l0 -0.40625zm7.432373 -3.9375l0 1.59375l-1.375 0l0 3.0625q0 0.9375 0.03125 1.09375q0.046875 0.140625 0.1875 0.25q0.140625 0.09375 0.34375 0.09375q0.28125 0 0.8125 -0.1875l0.171875 1.5625q-0.703125 0.296875 -1.59375 0.296875q-0.546875 0 -0.984375 -0.171875q-0.421875 -0.1875 -0.640625 -0.46875q-0.203125 -0.296875 -0.28125 -0.796875q-0.0625 -0.359375 -0.0625 -1.421875l0 -3.3125l-0.921875 0l0 -1.59375l0.921875 0l0 -1.515625l2.015625 -1.171875l0 2.6875l1.375 0zm2.9118958 2.3125l-1.828125 -0.328125q0.296875 -1.109375 1.046875 -1.625q0.765625 -0.53125 2.234375 -0.53125q1.359375 0 2.015625 0.3125q0.65625 0.3125 0.921875 0.8125q0.265625 0.484375 0.265625 1.796875l-0.015625 2.34375q0 1.0 0.09375 1.484375q0.09375 0.46875 0.359375 1.015625l-1.984375 0q-0.078125 -0.203125 -0.203125 -0.59375q-0.046875 -0.171875 -0.0625 -0.234375q-0.515625 0.5 -1.109375 0.75q-0.578125 0.25 -1.25 0.25q-1.171875 0 -1.859375 -0.640625q-0.671875 -0.640625 -0.671875 -1.609375q0 -0.640625 0.3125 -1.140625q0.3125 -0.515625 0.859375 -0.78125q0.5625 -0.265625 1.609375 -0.46875q1.40625 -0.265625 1.953125 -0.484375l0 -0.203125q0 -0.578125 -0.296875 -0.828125q-0.28125 -0.25 -1.078125 -0.25q-0.53125 0 -0.84375 0.21875q-0.296875 0.203125 -0.46875 0.734375zm2.6875 1.625q-0.390625 0.140625 -1.234375 0.328125q-0.828125 0.171875 -1.09375 0.34375q-0.390625 0.265625 -0.390625 0.703125q0 0.421875 0.3125 0.734375q0.3125 0.296875 0.8125 0.296875q0.53125 0 1.03125 -0.359375q0.359375 -0.265625 0.484375 -0.65625q0.078125 -0.265625 0.078125 -0.984375l0 -0.40625z" fill-rule="nonzero"/><path fill="#000000" d="m452.32007 156.41354l-1.96875 0.359375q-0.109375 -0.59375 -0.46875 -0.890625q-0.34375 -0.296875 -0.90625 -0.296875q-0.75 0 -1.203125 0.515625q-0.453125 0.515625 -0.453125 1.734375q0 1.359375 0.453125 1.921875q0.453125 0.546875 1.21875 0.546875q0.578125 0 0.9375 -0.328125q0.375 -0.328125 0.515625 -1.109375l1.984375 0.328125q-0.3125 1.359375 -1.1875 2.0625q-0.875 0.6875 -2.328125 0.6875q-1.671875 0 -2.671875 -1.046875q-0.984375 -1.0625 -0.984375 -2.921875q0 -1.875 0.984375 -2.921875q1.0 -1.046875 2.703125 -1.046875q1.390625 0 2.203125 0.59375q0.828125 0.59375 1.171875 1.8125zm1.072998 1.453125q0 -1.0 0.484375 -1.9375q0.5 -0.9375 1.40625 -1.421875q0.90625 -0.5 2.015625 -0.5q1.71875 0 2.828125 1.125q1.109375 1.109375 1.109375 2.8125q0 1.734375 -1.125 2.875q-1.109375 1.125 -2.796875 1.125q-1.046875 0 -2.0 -0.46875q-0.9375 -0.46875 -1.4375 -1.375q-0.484375 -0.921875 -0.484375 -2.234375zm2.046875 0.109375q0 1.125 0.53125 1.734375q0.546875 0.59375 1.34375 0.59375q0.78125 0 1.3125 -0.59375q0.53125 -0.609375 0.53125 -1.75q0 -1.125 -0.53125 -1.71875q-0.53125 -0.609375 -1.3125 -0.609375q-0.796875 0 -1.34375 0.609375q-0.53125 0.59375 -0.53125 1.734375zm7.358856 3.796875l0 -10.484375l2.015625 0l0 10.484375l-2.015625 0zm4.071991 0l0 -10.484375l2.015625 0l0 10.484375l-2.015625 0zm8.47821 -2.421875l2.0 0.34375q-0.375 1.09375 -1.21875 1.671875q-0.828125 0.578125 -2.078125 0.578125q-1.984375 0 -2.9375 -1.296875q-0.75 -1.03125 -0.75 -2.625q0 -1.875 0.984375 -2.9375q0.984375 -1.078125 2.5 -1.078125q1.6875 0 2.671875 1.125q0.984375 1.109375 0.9375 3.421875l-5.03125 0q0.015625 0.890625 0.484375 1.390625q0.46875 0.5 1.15625 0.5q0.46875 0 0.78125 -0.25q0.328125 -0.265625 0.5 -0.84375zm0.109375 -2.03125q-0.015625 -0.875 -0.453125 -1.328125q-0.421875 -0.453125 -1.03125 -0.453125q-0.671875 0 -1.09375 0.484375q-0.421875 0.46875 -0.421875 1.296875l3.0 0zm10.260498 -0.90625l-1.96875 0.359375q-0.109375 -0.59375 -0.46875 -0.890625q-0.34375 -0.296875 -0.90625 -0.296875q-0.75 0 -1.203125 0.515625q-0.453125 0.515625 -0.453125 1.734375q0 1.359375 0.453125 1.921875q0.453125 0.546875 1.21875 0.546875q0.578125 0 0.9375 -0.328125q0.375 -0.328125 0.515625 -1.109375l1.984375 0.328125q-0.3125 1.359375 -1.1875 2.0625q-0.875 0.6875 -2.328125 0.6875q-1.671875 0 -2.671875 -1.046875q-0.984375 -1.0625 -0.984375 -2.921875q0 -1.875 0.984375 -2.921875q1.0 -1.046875 2.703125 -1.046875q1.390625 0 2.203125 0.59375q0.828125 0.59375 1.171875 1.8125zm5.0104675 -2.234375l0 1.59375l-1.375 0l0 3.0625q0 0.9375 0.03125 1.09375q0.046875 0.140625 0.1875 0.25q0.140625 0.09375 0.34375 0.09375q0.28125 0 0.8125 -0.1875l0.171875 1.5625q-0.703125 0.296875 -1.59375 0.296875q-0.546875 0 -0.984375 -0.171875q-0.421875 -0.1875 -0.640625 -0.46875q-0.203125 -0.296875 -0.28125 -0.796875q-0.0625 -0.359375 -0.0625 -1.421875l0 -3.3125l-0.921875 0l0 -1.59375l0.921875 0l0 -1.515625l2.015625 -1.171875l0 2.6875l1.375 0zm0.94314575 3.6875q0 -1.0 0.484375 -1.9375q0.5 -0.9375 1.40625 -1.421875q0.90625 -0.5 2.015625 -0.5q1.71875 0 2.828125 1.125q1.109375 1.109375 1.109375 2.8125q0 1.734375 -1.125 2.875q-1.109375 1.125 -2.796875 1.125q-1.046875 0 -2.0 -0.46875q-0.9375 -0.46875 -1.4375 -1.375q-0.484375 -0.921875 -0.484375 -2.234375zm2.046875 0.109375q0 1.125 0.53125 1.734375q0.546875 0.59375 1.34375 0.59375q0.78125 0 1.3125 -0.59375q0.53125 -0.609375 0.53125 -1.75q0 -1.125 -0.53125 -1.71875q-0.53125 -0.609375 -1.3125 -0.609375q-0.796875 0 -1.34375 0.609375q-0.53125 0.59375 -0.53125 1.734375zm9.296387 3.796875l-2.015625 0l0 -7.59375l1.859375 0l0 1.078125q0.484375 -0.765625 0.859375 -1.0q0.390625 -0.25 0.875 -0.25q0.6875 0 1.328125 0.375l-0.625 1.75q-0.5 -0.328125 -0.9375 -0.328125q-0.421875 0 -0.71875 0.234375q-0.296875 0.234375 -0.46875 0.84375q-0.15625 0.609375 -0.15625 2.546875l0 2.34375z" fill-rule="nonzero"/><path fill="#000000" d="m457.59784 182.85104l-1.390625 0q-1.09375 -1.640625 -1.671875 -3.421875q-0.5625 -1.78125 -0.5625 -3.453125q0 -2.078125 0.703125 -3.921875q0.625 -1.59375 1.5625 -2.953125l1.375 0q-0.984375 2.171875 -1.359375 3.703125q-0.359375 1.515625 -0.359375 3.21875q0 1.171875 0.21875 2.40625q0.21875 1.21875 0.59375 2.328125q0.25 0.734375 0.890625 2.09375zm5.9431458 -5.5l2.0 0.34375q-0.375 1.09375 -1.21875 1.671875q-0.828125 0.578125 -2.078125 0.578125q-1.984375 0 -2.9375 -1.296875q-0.75 -1.03125 -0.75 -2.625q0 -1.875 0.984375 -2.9375q0.984375 -1.078125 2.5 -1.078125q1.6875 0 2.671875 1.125q0.984375 1.109375 0.9375 3.421875l-5.03125 0q0.015625 0.890625 0.484375 1.390625q0.46875 0.5 1.15625 0.5q0.46875 0 0.78125 -0.25q0.328125 -0.265625 0.5 -0.84375zm0.109375 -2.03125q-0.015625 -0.875 -0.453125 -1.328125q-0.421875 -0.453125 -1.03125 -0.453125q-0.671875 0 -1.09375 0.484375q-0.421875 0.46875 -0.421875 1.296875l3.0 0zm10.604248 4.453125l-1.859375 0l0 -1.109375q-0.46875 0.640625 -1.109375 0.96875q-0.625 0.3125 -1.265625 0.3125q-1.3125 0 -2.25 -1.046875q-0.9375 -1.0625 -0.9375 -2.953125q0 -1.9375 0.90625 -2.9375q0.921875 -1.0 2.3125 -1.0q1.265625 0 2.203125 1.046875l0 -3.765625l2.0 0l0 10.484375zm-5.359375 -3.96875q0 1.21875 0.328125 1.765625q0.5 0.78125 1.359375 0.78125q0.703125 0 1.1875 -0.578125q0.484375 -0.59375 0.484375 -1.765625q0 -1.3125 -0.46875 -1.890625q-0.46875 -0.578125 -1.203125 -0.578125q-0.71875 0 -1.203125 0.578125q-0.484375 0.5625 -0.484375 1.6875zm7.155731 4.46875l2.296875 0.28125q0.0625 0.40625 0.265625 0.546875q0.296875 0.21875 0.90625 0.21875q0.78125 0 1.1875 -0.234375q0.265625 -0.15625 0.390625 -0.515625q0.09375 -0.25 0.09375 -0.921875l0 -1.109375q-0.890625 1.234375 -2.265625 1.234375q-1.53125 0 -2.4375 -1.296875q-0.703125 -1.015625 -0.703125 -2.546875q0 -1.90625 0.921875 -2.90625q0.921875 -1.015625 2.296875 -1.015625q1.40625 0 2.328125 1.234375l0 -1.0625l1.875 0l0 6.8125q0 1.34375 -0.21875 2.0q-0.21875 0.671875 -0.625 1.046875q-0.40625 0.390625 -1.078125 0.59375q-0.65625 0.21875 -1.6875 0.21875q-1.9375 0 -2.75 -0.65625q-0.796875 -0.65625 -0.796875 -1.671875q0 -0.109375 0 -0.25zm1.796875 -4.453125q0 1.203125 0.46875 1.765625q0.46875 0.5625 1.15625 0.5625q0.75 0 1.25 -0.578125q0.515625 -0.578125 0.515625 -1.703125q0 -1.1875 -0.5 -1.75q-0.484375 -0.578125 -1.21875 -0.578125q-0.734375 0 -1.203125 0.5625q-0.46875 0.5625 -0.46875 1.71875zm11.749512 1.53125l2.0 0.34375q-0.375 1.09375 -1.21875 1.671875q-0.828125 0.578125 -2.078125 0.578125q-1.984375 0 -2.9375 -1.296875q-0.75 -1.03125 -0.75 -2.625q0 -1.875 0.984375 -2.9375q0.984375 -1.078125 2.5 -1.078125q1.6875 0 2.671875 1.125q0.984375 1.109375 0.9375 3.421875l-5.03125 0q0.015625 0.890625 0.484375 1.390625q0.46875 0.5 1.15625 0.5q0.46875 0 0.78125 -0.25q0.328125 -0.265625 0.5 -0.84375zm0.109375 -2.03125q-0.015625 -0.875 -0.453125 -1.328125q-0.421875 -0.453125 -1.03125 -0.453125q-0.671875 0 -1.09375 0.484375q-0.421875 0.46875 -0.421875 1.296875l3.0 0zm3.0885925 7.53125q0.59375 -1.265625 0.828125 -1.953125q0.25 -0.671875 0.453125 -1.5625q0.203125 -0.890625 0.296875 -1.6875q0.109375 -0.796875 0.109375 -1.625q0 -1.703125 -0.375 -3.21875q-0.359375 -1.53125 -1.328125 -3.703125l1.359375 0q1.078125 1.546875 1.671875 3.265625q0.609375 1.71875 0.609375 3.5q0 1.5 -0.46875 3.203125q-0.546875 1.921875 -1.78125 3.78125l-1.375 0z" fill-rule="nonzero"/><path fill="#000000" fill-opacity="0.0" d="m435.10367 116.60497l-110.04724 -39.905518" fill-rule="evenodd"/><path stroke="#000000" stroke-width="1.0" stroke-linejoin="round" stroke-linecap="butt" d="m429.4631 114.55957l-98.76608 -35.814705" fill-rule="evenodd"/><path fill="#000000" stroke="#000000" stroke-width="1.0" stroke-linecap="butt" d="m428.9 116.11236l4.8293457 -0.0057525635l-3.703186 -3.0998306z" fill-rule="evenodd"/><path fill="#000000" stroke="#000000" stroke-width="1.0" stroke-linecap="butt" d="m331.26007 77.19207l-4.829315 0.0057525635l3.703186 3.0998306z" fill-rule="evenodd"/><path fill="#cfe2f3" d="m211.74934 243.8924l0 0c0 -31.310638 25.382278 -56.692917 56.692917 -56.692917l0 0c15.035889 0 29.455963 5.9729767 40.08795 16.604965c10.631958 10.631989 16.60495 25.052048 16.60495 40.08795l0 0c0 31.310638 -25.382263 56.6929 -56.6929 56.6929l0 0c-31.310638 0 -56.692917 -25.382263 -56.692917 -56.6929z" fill-rule="evenodd"/><path stroke="#000000" stroke-width="1.0" stroke-linejoin="round" stroke-linecap="butt" d="m211.74934 243.8924l0 0c0 -31.310638 25.382278 -56.692917 56.692917 -56.692917l0 0c15.035889 0 29.455963 5.9729767 40.08795 16.604965c10.631958 10.631989 16.60495 25.052048 16.60495 40.08795l0 0c0 31.310638 -25.382263 56.6929 -56.6929 56.6929l0 0c-31.310638 0 -56.692917 -25.382263 -56.692917 -56.6929z" fill-rule="evenodd"/><path fill="#000000" d="m253.62119 220.488l3.875 0q1.296875 0 1.984375 0.1875q0.921875 0.28125 1.578125 0.984375q0.671875 0.6875 1.015625 1.6875q0.34375 1.0 0.34375 2.484375q0 1.296875 -0.328125 2.234375q-0.390625 1.140625 -1.125 1.84375q-0.546875 0.546875 -1.484375 0.84375q-0.703125 0.21875 -1.875 0.21875l-3.984375 0l0 -10.484375zm2.109375 1.765625l0 6.953125l1.59375 0q0.875 0 1.28125 -0.109375q0.515625 -0.125 0.84375 -0.421875q0.34375 -0.3125 0.5625 -1.015625q0.21875 -0.703125 0.21875 -1.921875q0 -1.21875 -0.21875 -1.859375q-0.21875 -0.65625 -0.609375 -1.015625q-0.375 -0.375 -0.96875 -0.5q-0.453125 -0.109375 -1.75 -0.109375l-0.953125 0zm9.974915 3.4375l-1.828125 -0.328125q0.296875 -1.109375 1.046875 -1.625q0.765625 -0.53125 2.234375 -0.53125q1.359375 0 2.015625 0.3125q0.65625 0.3125 0.921875 0.8125q0.265625 0.484375 0.265625 1.796875l-0.015625 2.34375q0 1.0 0.09375 1.484375q0.09375 0.46875 0.359375 1.015625l-1.984375 0q-0.078125 -0.203125 -0.203125 -0.59375q-0.046875 -0.171875 -0.0625 -0.234375q-0.515625 0.5 -1.109375 0.75q-0.578125 0.25 -1.25 0.25q-1.171875 0 -1.859375 -0.640625q-0.671875 -0.640625 -0.671875 -1.609375q0 -0.640625 0.3125 -1.140625q0.3125 -0.515625 0.859375 -0.78125q0.5625 -0.265625 1.609375 -0.46875q1.40625 -0.265625 1.953125 -0.484375l0 -0.203125q0 -0.578125 -0.296875 -0.828125q-0.28125 -0.25 -1.078125 -0.25q-0.53125 0 -0.84375 0.21875q-0.296875 0.203125 -0.46875 0.734375zm2.6875 1.625q-0.390625 0.140625 -1.234375 0.328125q-0.828125 0.171875 -1.09375 0.34375q-0.390625 0.265625 -0.390625 0.703125q0 0.421875 0.3125 0.734375q0.3125 0.296875 0.8125 0.296875q0.53125 0 1.03125 -0.359375q0.359375 -0.265625 0.484375 -0.65625q0.078125 -0.265625 0.078125 -0.984375l0 -0.40625zm7.4323425 -3.9375l0 1.59375l-1.375 0l0 3.0625q0 0.9375 0.03125 1.09375q0.046875 0.140625 0.1875 0.25q0.140625 0.09375 0.34375 0.09375q0.28125 0 0.8125 -0.1875l0.171875 1.5625q-0.703125 0.296875 -1.59375 0.296875q-0.546875 0 -0.984375 -0.171875q-0.421875 -0.1875 -0.640625 -0.46875q-0.203125 -0.296875 -0.28125 -0.796875q-0.0625 -0.359375 -0.0625 -1.421875l0 -3.3125l-0.921875 0l0 -1.59375l0.921875 0l0 -1.515625l2.015625 -1.171875l0 2.6875l1.375 0zm2.9118958 2.3125l-1.828125 -0.328125q0.296875 -1.109375 1.046875 -1.625q0.765625 -0.53125 2.234375 -0.53125q1.359375 0 2.015625 0.3125q0.65625 0.3125 0.921875 0.8125q0.265625 0.484375 0.265625 1.796875l-0.015625 2.34375q0 1.0 0.09375 1.484375q0.09375 0.46875 0.359375 1.015625l-1.984375 0q-0.078125 -0.203125 -0.203125 -0.59375q-0.046875 -0.171875 -0.0625 -0.234375q-0.515625 0.5 -1.109375 0.75q-0.578125 0.25 -1.25 0.25q-1.171875 0 -1.859375 -0.640625q-0.671875 -0.640625 -0.671875 -1.609375q0 -0.640625 0.3125 -1.140625q0.3125 -0.515625 0.859375 -0.78125q0.5625 -0.265625 1.609375 -0.46875q1.40625 -0.265625 1.953125 -0.484375l0 -0.203125q0 -0.578125 -0.296875 -0.828125q-0.28125 -0.25 -1.078125 -0.25q-0.53125 0 -0.84375 0.21875q-0.296875 0.203125 -0.46875 0.734375zm2.6875 1.625q-0.390625 0.140625 -1.234375 0.328125q-0.828125 0.171875 -1.09375 0.34375q-0.390625 0.265625 -0.390625 0.703125q0 0.421875 0.3125 0.734375q0.3125 0.296875 0.8125 0.296875q0.53125 0 1.03125 -0.359375q0.359375 -0.265625 0.484375 -0.65625q0.078125 -0.265625 0.078125 -0.984375l0 -0.40625z" fill-rule="nonzero"/><path fill="#000000" d="m232.7289 243.69113l-1.828125 -0.328125q0.296875 -1.109375 1.046875 -1.625q0.765625 -0.53125 2.234375 -0.53125q1.359375 0 2.015625 0.3125q0.65625 0.3125 0.921875 0.8125q0.265625 0.484375 0.265625 1.796875l-0.015625 2.34375q0 1.0 0.09375 1.484375q0.09375 0.46875 0.359375 1.015625l-1.984375 0q-0.078125 -0.203125 -0.203125 -0.59375q-0.046875 -0.171875 -0.0625 -0.234375q-0.515625 0.5 -1.109375 0.75q-0.578125 0.25 -1.25 0.25q-1.171875 0 -1.859375 -0.640625q-0.671875 -0.640625 -0.671875 -1.609375q0 -0.640625 0.3125 -1.140625q0.3125 -0.515625 0.859375 -0.78125q0.5625 -0.265625 1.609375 -0.46875q1.40625 -0.265625 1.953125 -0.484375l0 -0.203125q0 -0.578125 -0.296875 -0.828125q-0.28125 -0.25 -1.078125 -0.25q-0.53125 0 -0.84375 0.21875q-0.296875 0.203125 -0.46875 0.734375zm2.6875 1.625q-0.390625 0.140625 -1.234375 0.328125q-0.828125 0.171875 -1.09375 0.34375q-0.390625 0.265625 -0.390625 0.703125q0 0.421875 0.3125 0.734375q0.3125 0.296875 0.8125 0.296875q0.53125 0 1.03125 -0.359375q0.359375 -0.265625 0.484375 -0.65625q0.078125 -0.265625 0.078125 -0.984375l0 -0.40625zm3.7604828 4.15625l2.296875 0.28125q0.0625 0.40625 0.265625 0.546875q0.296875 0.21875 0.90625 0.21875q0.78125 0 1.1875 -0.234375q0.265625 -0.15625 0.390625 -0.515625q0.09375 -0.25 0.09375 -0.921875l0 -1.109375q-0.890625 1.234375 -2.265625 1.234375q-1.53125 0 -2.4375 -1.296875q-0.703125 -1.015625 -0.703125 -2.546875q0 -1.90625 0.921875 -2.90625q0.921875 -1.015625 2.296875 -1.015625q1.40625 0 2.328125 1.234375l0 -1.0625l1.875 0l0 6.8125q0 1.34375 -0.21875 2.0q-0.21875 0.671875 -0.625 1.046875q-0.40625 0.390625 -1.078125 0.59375q-0.65625 0.21875 -1.6875 0.21875q-1.9375 0 -2.75 -0.65625q-0.796875 -0.65625 -0.796875 -1.671875q0 -0.109375 0 -0.25zm1.796875 -4.453125q0 1.203125 0.46875 1.765625q0.46875 0.5625 1.15625 0.5625q0.75 0 1.25 -0.578125q0.515625 -0.578125 0.515625 -1.703125q0 -1.1875 -0.5 -1.75q-0.484375 -0.578125 -1.21875 -0.578125q-0.734375 0 -1.203125 0.5625q-0.46875 0.5625 -0.46875 1.71875zm7.1557465 4.453125l2.296875 0.28125q0.0625 0.40625 0.265625 0.546875q0.296875 0.21875 0.90625 0.21875q0.78125 0 1.1875 -0.234375q0.265625 -0.15625 0.390625 -0.515625q0.09375 -0.25 0.09375 -0.921875l0 -1.109375q-0.890625 1.234375 -2.265625 1.234375q-1.53125 0 -2.4375 -1.296875q-0.703125 -1.015625 -0.703125 -2.546875q0 -1.90625 0.921875 -2.90625q0.921875 -1.015625 2.296875 -1.015625q1.40625 0 2.328125 1.234375l0 -1.0625l1.875 0l0 6.8125q0 1.34375 -0.21875 2.0q-0.21875 0.671875 -0.625 1.046875q-0.40625 0.390625 -1.078125 0.59375q-0.65625 0.21875 -1.6875 0.21875q-1.9375 0 -2.75 -0.65625q-0.796875 -0.65625 -0.796875 -1.671875q0 -0.109375 0 -0.25zm1.796875 -4.453125q0 1.203125 0.46875 1.765625q0.46875 0.5625 1.15625 0.5625q0.75 0 1.25 -0.578125q0.515625 -0.578125 0.515625 -1.703125q0 -1.1875 -0.5 -1.75q-0.484375 -0.578125 -1.21875 -0.578125q-0.734375 0 -1.203125 0.5625q-0.46875 0.5625 -0.46875 1.71875zm9.280746 3.953125l-2.015625 0l0 -7.59375l1.859375 0l0 1.078125q0.484375 -0.765625 0.859375 -1.0q0.390625 -0.25 0.875 -0.25q0.6875 0 1.328125 0.375l-0.625 1.75q-0.5 -0.328125 -0.9375 -0.328125q-0.421875 0 -0.71875 0.234375q-0.296875 0.234375 -0.46875 0.84375q-0.15625 0.609375 -0.15625 2.546875l0 2.34375zm8.172394 -2.421875l2.0 0.34375q-0.375 1.09375 -1.21875 1.671875q-0.828125 0.578125 -2.078125 0.578125q-1.984375 0 -2.9375 -1.296875q-0.75 -1.03125 -0.75 -2.625q0 -1.875 0.984375 -2.9375q0.984375 -1.078125 2.5 -1.078125q1.6875 0 2.671875 1.125q0.984375 1.109375 0.9375 3.421875l-5.03125 0q0.015625 0.890625 0.484375 1.390625q0.46875 0.5 1.15625 0.5q0.46875 0 0.78125 -0.25q0.328125 -0.265625 0.5 -0.84375zm0.109375 -2.03125q-0.015625 -0.875 -0.453125 -1.328125q-0.421875 -0.453125 -1.03125 -0.453125q-0.671875 0 -1.09375 0.484375q-0.421875 0.46875 -0.421875 1.296875l3.0 0zm3.4479675 4.953125l2.296875 0.28125q0.0625 0.40625 0.265625 0.546875q0.296875 0.21875 0.90625 0.21875q0.78125 0 1.1875 -0.234375q0.265625 -0.15625 0.390625 -0.515625q0.09375 -0.25 0.09375 -0.921875l0 -1.109375q-0.890625 1.234375 -2.265625 1.234375q-1.53125 0 -2.4375 -1.296875q-0.703125 -1.015625 -0.703125 -2.546875q0 -1.90625 0.921875 -2.90625q0.921875 -1.015625 2.296875 -1.015625q1.40625 0 2.328125 1.234375l0 -1.0625l1.875 0l0 6.8125q0 1.34375 -0.21875 2.0q-0.21875 0.671875 -0.625 1.046875q-0.40625 0.390625 -1.078125 0.59375q-0.65625 0.21875 -1.6875 0.21875q-1.9375 0 -2.75 -0.65625q-0.796875 -0.65625 -0.796875 -1.671875q0 -0.109375 0 -0.25zm1.796875 -4.453125q0 1.203125 0.46875 1.765625q0.46875 0.5625 1.15625 0.5625q0.75 0 1.25 -0.578125q0.515625 -0.578125 0.515625 -1.703125q0 -1.1875 -0.5 -1.75q-0.484375 -0.578125 -1.21875 -0.578125q-0.734375 0 -1.203125 0.5625q-0.46875 0.5625 -0.46875 1.71875zm8.858887 -1.328125l-1.828125 -0.328125q0.296875 -1.109375 1.046875 -1.625q0.765625 -0.53125 2.234375 -0.53125q1.359375 0 2.015625 0.3125q0.65625 0.3125 0.921875 0.8125q0.265625 0.484375 0.265625 1.796875l-0.015625 2.34375q0 1.0 0.09375 1.484375q0.09375 0.46875 0.359375 1.015625l-1.984375 0q-0.078125 -0.203125 -0.203125 -0.59375q-0.046875 -0.171875 -0.0625 -0.234375q-0.515625 0.5 -1.109375 0.75q-0.578125 0.25 -1.25 0.25q-1.171875 0 -1.859375 -0.640625q-0.671875 -0.640625 -0.671875 -1.609375q0 -0.640625 0.3125 -1.140625q0.3125 -0.515625 0.859375 -0.78125q0.5625 -0.265625 1.609375 -0.46875q1.40625 -0.265625 1.953125 -0.484375l0 -0.203125q0 -0.578125 -0.296875 -0.828125q-0.28125 -0.25 -1.078125 -0.25q-0.53125 0 -0.84375 0.21875q-0.296875 0.203125 -0.46875 0.734375zm2.6875 1.625q-0.390625 0.140625 -1.234375 0.328125q-0.828125 0.171875 -1.09375 0.34375q-0.390625 0.265625 -0.390625 0.703125q0 0.421875 0.3125 0.734375q0.3125 0.296875 0.8125 0.296875q0.53125 0 1.03125 -0.359375q0.359375 -0.265625 0.484375 -0.65625q0.078125 -0.265625 0.078125 -0.984375l0 -0.40625zm7.4323425 -3.9375l0 1.59375l-1.375 0l0 3.0625q0 0.9375 0.03125 1.09375q0.046875 0.140625 0.1875 0.25q0.140625 0.09375 0.34375 0.09375q0.28125 0 0.8125 -0.1875l0.171875 1.5625q-0.703125 0.296875 -1.59375 0.296875q-0.546875 0 -0.984375 -0.171875q-0.421875 -0.1875 -0.640625 -0.46875q-0.203125 -0.296875 -0.28125 -0.796875q-0.0625 -0.359375 -0.0625 -1.421875l0 -3.3125l-0.921875 0l0 -1.59375l0.921875 0l0 -1.515625l2.015625 -1.171875l0 2.6875l1.375 0zm0.94314575 3.6875q0 -1.0 0.484375 -1.9375q0.5 -0.9375 1.40625 -1.421875q0.90625 -0.5 2.015625 -0.5q1.71875 0 2.828125 1.125q1.109375 1.109375 1.109375 2.8125q0 1.734375 -1.125 2.875q-1.109375 1.125 -2.796875 1.125q-1.046875 0 -2.0 -0.46875q-0.9375 -0.46875 -1.4375 -1.375q-0.484375 -0.921875 -0.484375 -2.234375zm2.046875 0.109375q0 1.125 0.53125 1.734375q0.546875 0.59375 1.34375 0.59375q0.78125 0 1.3125 -0.59375q0.53125 -0.609375 0.53125 -1.75q0 -1.125 -0.53125 -1.71875q-0.53125 -0.609375 -1.3125 -0.609375q-0.796875 0 -1.34375 0.609375q-0.53125 0.59375 -0.53125 1.734375zm9.296387 3.796875l-2.015625 0l0 -7.59375l1.859375 0l0 1.078125q0.484375 -0.765625 0.859375 -1.0q0.390625 -0.25 0.875 -0.25q0.6875 0 1.328125 0.375l-0.625 1.75q-0.5 -0.328125 -0.9375 -0.328125q-0.421875 0 -0.71875 0.234375q-0.296875 0.234375 -0.46875 0.84375q-0.15625 0.609375 -0.15625 2.546875l0 2.34375z" fill-rule="nonzero"/><path fill="#000000" d="m248.41176 270.0505l-1.390625 0q-1.09375 -1.640625 -1.671875 -3.421875q-0.5625 -1.78125 -0.5625 -3.453125q0 -2.078125 0.703125 -3.921875q0.625 -1.59375 1.5625 -2.953125l1.375 0q-0.984375 2.171875 -1.359375 3.703125q-0.359375 1.515625 -0.359375 3.21875q0 1.171875 0.21875 2.40625q0.21875 1.21875 0.59375 2.328125q0.25 0.734375 0.890625 2.09375zm8.161911 -8.4375l-1.9687653 0.359375q-0.109375 -0.59375 -0.46875 -0.890625q-0.34375 -0.296875 -0.90625 -0.296875q-0.75 0 -1.203125 0.515625q-0.453125 0.515625 -0.453125 1.734375q0 1.359375 0.453125 1.921875q0.453125 0.546875 1.21875 0.546875q0.578125 0 0.9375 -0.328125q0.375 -0.328125 0.515625 -1.109375l1.9843903 0.328125q-0.3125 1.359375 -1.1875153 2.0625q-0.875 0.6875 -2.328125 0.6875q-1.671875 0 -2.671875 -1.046875q-0.984375 -1.0625 -0.984375 -2.921875q0 -1.875 0.984375 -2.921875q1.0 -1.046875 2.703125 -1.046875q1.390625 0 2.203125 0.59375q0.82814026 0.59375 1.1718903 1.8125zm1.5260925 5.359375l0 -10.484375l2.015625 0l0 10.484375l-2.015625 0zm3.618866 -3.90625q0 -1.0 0.484375 -1.9375q0.5 -0.9375 1.40625 -1.421875q0.90625 -0.5 2.015625 -0.5q1.71875 0 2.828125 1.125q1.109375 1.109375 1.109375 2.8125q0 1.734375 -1.125 2.875q-1.109375 1.125 -2.796875 1.125q-1.046875 0 -2.0 -0.46875q-0.9375 -0.46875 -1.4375 -1.375q-0.484375 -0.921875 -0.484375 -2.234375zm2.046875 0.109375q0 1.125 0.53125 1.734375q0.546875 0.59375 1.34375 0.59375q0.78125 0 1.3125 -0.59375q0.53125 -0.609375 0.53125 -1.75q0 -1.125 -0.53125 -1.71875q-0.53125 -0.609375 -1.3125 -0.609375q-0.796875 0 -1.34375 0.609375q-0.53125 0.59375 -0.53125 1.734375zm12.358856 3.796875l0 -1.140625q-0.40625 0.609375 -1.09375 0.96875q-0.671875 0.34375 -1.421875 0.34375q-0.765625 0 -1.375 -0.328125q-0.609375 -0.34375 -0.875 -0.953125q-0.265625 -0.609375 -0.265625 -1.6875l0 -4.796875l2.0 0l0 3.484375q0 1.609375 0.109375 1.96875q0.109375 0.359375 0.40625 0.578125q0.296875 0.203125 0.75 0.203125q0.515625 0 0.921875 -0.28125q0.40625 -0.28125 0.546875 -0.703125q0.15625 -0.421875 0.15625 -2.046875l0 -3.203125l2.015625 0l0 7.59375l-1.875 0zm10.921387 0l-1.859375 0l0 -1.109375q-0.46875 0.640625 -1.109375 0.96875q-0.625 0.3125 -1.265625 0.3125q-1.3125 0 -2.25 -1.046875q-0.9375 -1.0625 -0.9375 -2.953125q0 -1.9375 0.90625 -2.9375q0.921875 -1.0 2.3125 -1.0q1.265625 0 2.203125 1.046875l0 -3.765625l2.0 0l0 10.484375zm-5.359375 -3.96875q0 1.21875 0.328125 1.765625q0.5 0.78125 1.359375 0.78125q0.703125 0 1.1875 -0.578125q0.484375 -0.59375 0.484375 -1.765625q0 -1.3125 -0.46875 -1.890625q-0.46875 -0.578125 -1.203125 -0.578125q-0.71875 0 -1.203125 0.578125q-0.484375 0.5625 -0.484375 1.6875zm6.796356 7.046875q0.59375 -1.265625 0.828125 -1.953125q0.25 -0.671875 0.453125 -1.5625q0.203125 -0.890625 0.296875 -1.6875q0.109375 -0.796875 0.109375 -1.625q0 -1.703125 -0.375 -3.21875q-0.359375 -1.53125 -1.328125 -3.703125l1.359375 0q1.078125 1.546875 1.671875 3.265625q0.609375 1.71875 0.609375 3.5q0 1.5 -0.46875 3.203125q-0.546875 1.921875 -1.78125 3.78125l-1.375 0z" fill-rule="nonzero"/><path fill="#000000" fill-opacity="0.0" d="m268.44226 187.19948l-0.09448242 -53.826782" fill-rule="evenodd"/><path stroke="#000000" stroke-width="1.0" stroke-linejoin="round" stroke-linecap="butt" d="m268.43173 181.19948l-0.07342529 -41.826782" fill-rule="evenodd"/><path fill="#000000" stroke="#000000" stroke-width="1.0" stroke-linecap="butt" d="m266.78 181.20238l1.6596985 4.535202l1.6437683 -4.5410004z" fill-rule="evenodd"/><path fill="#000000" stroke="#000000" stroke-width="1.0" stroke-linecap="butt" d="m270.01004 139.3698l-1.6596985 -4.535187l-1.6437683 4.540985z" fill-rule="evenodd"/></g></svg>