<svg version="1.1" viewBox="0.0 0.0 537.4094488188977 228.0971128608924" fill="none" stroke="none" stroke-linecap="square" stroke-miterlimit="10" xmlns:xlink="http://www.w3.org/1999/xlink" xmlns="http://www.w3.org/2000/svg"><clipPath id="p.0"><path d="m0 0l537.4094 0l0 228.0971l-537.4094 0l0 -228.0971z" clip-rule="nonzero"/></clipPath><g clip-path="url(#p.0)"><path fill="#000000" fill-opacity="0.0" d="m0 0l537.4094 0l0 228.0971l-537.4094 0z" fill-rule="evenodd"/><path fill="#cfe2f3" d="m211.6693 76.69292l0 0c0 -31.310635 25.382278 -56.692917 56.692917 -56.692917l0 0c15.035889 0 29.455963 5.972986 40.08792 16.604969c10.631989 10.631985 16.60498 25.052048 16.60498 40.087948l0 0c0 31.31063 -25.382294 56.692917 -56.6929 56.692917l0 0c-31.310638 0 -56.692917 -25.382286 -56.692917 -56.692917z" fill-rule="evenodd"/><path stroke="#000000" stroke-width="1.0" stroke-linejoin="round" stroke-linecap="butt" d="m211.6693 76.69292l0 0c0 -31.310635 25.382278 -56.692917 56.692917 -56.692917l0 0c15.035889 0 29.455963 5.972986 40.08792 16.604969c10.631989 10.631985 16.60498 25.052048 16.60498 40.087948l0 0c0 31.31063 -25.382294 56.692917 -56.6929 56.692917l0 0c-31.310638 0 -56.692917 -25.382286 -56.692917 -56.692917z" fill-rule="evenodd"/><path fill="#000000" d="m248.6364 72.77292l0 -10.484379l3.171875 0l1.90625 7.156254l1.890625 -7.156254l3.1718597 0l0 10.484379l-1.96875 0l0 -8.265625l-2.0781097 8.265625l-2.046875 0l-2.078125 -8.265625l0 8.265625l-1.96875 0zm20.69313 -1.328125q0.78125 0.5625 1.6875 0.890625l-0.78125 1.484375q-0.46875 -0.140625 -0.9375 -0.390625q-0.09375 -0.046875 -1.40625 -0.921875q-1.03125 0.4375 -2.28125 0.4375q-2.421875 0 -3.796875 -1.421875q-1.359375 -1.421875 -1.359375 -4.0q0 -2.5625 1.375 -3.9843788q1.375 -1.4375 3.71875 -1.4375q2.34375 0 3.703125 1.4375q1.375 1.4218788 1.375 3.9843788q0 1.359375 -0.390625 2.390625q-0.28125 0.796875 -0.90625 1.53125zm-1.703125 -1.203125q0.40625 -0.46875 0.609375 -1.140625q0.203125 -0.6875 0.203125 -1.578125q0 -1.8125 -0.8125 -2.703125q-0.796875 -0.9062538 -2.09375 -0.9062538q-1.28125 0 -2.09375 0.9062538q-0.8125 0.890625 -0.8125 2.703125q0 1.84375 0.8125 2.765625q0.8125 0.90625 2.03125 0.90625q0.46875 0 0.875 -0.15625q-0.65625 -0.421875 -1.3125 -0.65625l0.59375 -1.203125q1.046875 0.359375 2.0 1.0625zm7.009491 2.53125l0 -8.71875l-3.109375 0l0 -1.7656288l8.34375 0l0 1.7656288l-3.109375 0l0 8.71875l-2.125 0zm8.952606 0l0 -8.71875l-3.109375 0l0 -1.7656288l8.34375 0l0 1.7656288l-3.109375 0l0 8.71875l-2.125 0z" fill-rule="nonzero"/><path fill="#000000" d="m245.81714 80.28854l4.1875 0q1.25 0 1.859375 0.109375q0.609375 0.09375 1.09375 0.421875q0.484375 0.328125 0.796875 0.875q0.328125 0.546875 0.328125 1.234375q0 0.734375 -0.40625 1.359375q-0.390625 0.609375 -1.0625 0.90625q0.953125 0.28125 1.46875 0.953125q0.515625 0.671875 0.515625 1.578125q0 0.71875 -0.328125 1.40625q-0.328125 0.671875 -0.90625 1.078125q-0.578125 0.390625 -1.421875 0.484375q-0.53125 0.0625 -2.5625 0.078125l-3.5625 0l0 -10.484375zm2.109375 1.734375l0 2.4375l1.390625 0q1.234375 0 1.546875 -0.046875q0.53125 -0.0625 0.84375 -0.375q0.3125 -0.3125 0.3125 -0.8125q0 -0.484375 -0.265625 -0.78125q-0.265625 -0.3125 -0.796875 -0.375q-0.3125 -0.046875 -1.8125 -0.046875l-1.21875 0zm0 4.171875l0 2.8125l1.96875 0q1.140625 0 1.453125 -0.0625q0.46875 -0.09375 0.765625 -0.421875q0.296875 -0.328125 0.296875 -0.890625q0 -0.46875 -0.234375 -0.796875q-0.21875 -0.328125 -0.65625 -0.484375q-0.4375 -0.15625 -1.875 -0.15625l-1.71875 0zm10.381165 4.578125l-2.015625 0l0 -7.59375l1.859375 0l0 1.078125q0.484375 -0.765625 0.859375 -1.0q0.390625 -0.25 0.875 -0.25q0.6875 0 1.328125 0.375l-0.625 1.75q-0.5 -0.328125 -0.9375 -0.328125q-0.421875 0 -0.71875 0.234375q-0.296875 0.234375 -0.46875 0.84375q-0.15625 0.609375 -0.15625 2.546875l0 2.34375zm3.3129883 -3.90625q0 -1.0 0.484375 -1.9375q0.5 -0.9375 1.40625 -1.421875q0.90625 -0.5 2.015625 -0.5q1.71875 0 2.828125 1.125q1.109375 1.109375 1.109375 2.8125q0 1.734375 -1.125 2.875q-1.109375 1.125 -2.796875 1.125q-1.046875 0 -2.0 -0.46875q-0.9375 -0.46875 -1.4375 -1.375q-0.484375 -0.921875 -0.484375 -2.234375zm2.046875 0.109375q0 1.125 0.53125 1.734375q0.546875 0.59375 1.34375 0.59375q0.78125 0 1.3125 -0.59375q0.53125 -0.609375 0.53125 -1.75q0 -1.125 -0.53125 -1.71875q-0.53125 -0.609375 -1.3125 -0.609375q-0.796875 0 -1.34375 0.609375q-0.53125 0.59375 -0.53125 1.734375zm7.2963867 3.796875l0 -10.484375l2.0 0l0 5.5625l2.359375 -2.671875l2.484375 0l-2.609375 2.765625l2.796875 4.828125l-2.171875 0l-1.921875 -3.40625l-0.9375 0.96875l0 2.4375l-2.0 0zm12.619843 -2.421875l2.0 0.34375q-0.375 1.09375 -1.21875 1.671875q-0.828125 0.578125 -2.078125 0.578125q-1.984375 0 -2.9375 -1.296875q-0.75 -1.03125 -0.75 -2.625q0 -1.875 0.984375 -2.9375q0.984375 -1.078125 2.5 -1.078125q1.6875 0 2.671875 1.125q0.984375 1.109375 0.9375 3.421875l-5.03125 0q0.015625 0.890625 0.484375 1.390625q0.46875 0.5 1.15625 0.5q0.46875 0 0.78125 -0.25q0.328125 -0.265625 0.5 -0.84375zm0.109375 -2.03125q-0.015625 -0.875 -0.453125 -1.328125q-0.421875 -0.453125 -1.03125 -0.453125q-0.671875 0 -1.09375 0.484375q-0.421875 0.46875 -0.421875 1.296875l3.0 0zm5.572998 4.453125l-2.015625 0l0 -7.59375l1.859375 0l0 1.078125q0.484375 -0.765625 0.859375 -1.0q0.390625 -0.25 0.875 -0.25q0.6875 0 1.328125 0.375l-0.625 1.75q-0.5 -0.328125 -0.9375 -0.328125q-0.421875 0 -0.71875 0.234375q-0.296875 0.234375 -0.46875 0.84375q-0.15625 0.609375 -0.15625 2.546875l0 2.34375z" fill-rule="nonzero"/><path fill="#cfe2f3" d="m5.0 156.69292l0 0c0 -31.310638 25.382282 -56.692917 56.692913 -56.692917l0 0c15.0358925 0 29.45596 5.9729843 40.08794 16.604973c10.631989 10.631981 16.604973 25.05204 16.604973 40.087944l0 0c0 31.310623 -25.382278 56.692917 -56.692913 56.692917l0 0c-31.31063 0 -56.692913 -25.382294 -56.692913 -56.692917z" fill-rule="evenodd"/><path stroke="#000000" stroke-width="1.0" stroke-linejoin="round" stroke-linecap="butt" d="m5.0 156.69292l0 0c0 -31.310638 25.382282 -56.692917 56.692913 -56.692917l0 0c15.0358925 0 29.45596 5.9729843 40.08794 16.604973c10.631989 10.631981 16.604973 25.05204 16.604973 40.087944l0 0c0 31.310623 -25.382278 56.692917 -56.692913 56.692917l0 0c-31.31063 0 -56.692913 -25.382294 -56.692913 -56.692917z" fill-rule="evenodd"/><path fill="#000000" d="m23.94115 158.36667l2.0625 -0.203125q0.1875 1.03125 0.75 1.515625q0.578125 0.484375 1.53125 0.484375q1.03125 0 1.546875 -0.421875q0.515625 -0.4375 0.515625 -1.015625q0 -0.375 -0.21875 -0.625q-0.21875 -0.265625 -0.75 -0.46875q-0.375 -0.125 -1.703125 -0.453125q-1.703125 -0.421875 -2.390625 -1.03125q-0.96875 -0.875 -0.96875 -2.125q0 -0.796875 0.453125 -1.484375q0.453125 -0.703125 1.3125 -1.0625q0.859375 -0.375 2.0625 -0.375q1.984375 0 2.96875 0.875q1.0 0.859375 1.0625 2.296875l-2.125 0.09375q-0.140625 -0.796875 -0.59375 -1.15625q-0.4375 -0.359375 -1.328125 -0.359375q-0.921875 0 -1.453125 0.390625q-0.328125 0.234375 -0.328125 0.640625q0 0.375 0.3125 0.640625q0.40625 0.34375 1.9375 0.703125q1.546875 0.359375 2.28125 0.75q0.75 0.390625 1.171875 1.078125q0.421875 0.671875 0.421875 1.65625q0 0.90625 -0.5 1.703125q-0.5 0.78125 -1.421875 1.171875q-0.921875 0.375 -2.28125 0.375q-1.984375 0 -3.0625 -0.921875q-1.0625 -0.921875 -1.265625 -2.671875zm15.291229 3.40625l0 -1.140625q-0.40625 0.609375 -1.09375 0.96875q-0.671875 0.34375 -1.421875 0.34375q-0.765625 0 -1.375 -0.328125q-0.609375 -0.34375 -0.875 -0.953125q-0.265625 -0.609375 -0.265625 -1.6875l0 -4.796875l2.0 0l0 3.484375q0 1.609375 0.109375 1.96875q0.109375 0.359375 0.40625 0.578125q0.296875 0.203125 0.75 0.203125q0.515625 0 0.921875 -0.28125q0.40625 -0.28125 0.546875 -0.703125q0.15625 -0.421875 0.15625 -2.046875l0 -3.203125l2.015625 0l0 7.59375l-1.875 0zm3.8744965 0l0 -10.484375l2.015625 0l0 3.765625q0.921875 -1.046875 2.203125 -1.046875q1.375 0 2.28125 1.0q0.921875 1.0 0.921875 2.890625q0 1.9375 -0.9375 3.0q-0.921875 1.046875 -2.25 1.046875q-0.640625 0 -1.28125 -0.328125q-0.625 -0.328125 -1.09375 -0.953125l0 1.109375l-1.859375 0zm2.0 -3.96875q0 1.1875 0.359375 1.75q0.53125 0.796875 1.390625 0.796875q0.671875 0 1.140625 -0.5625q0.46875 -0.578125 0.46875 -1.796875q0 -1.296875 -0.484375 -1.875q-0.46875 -0.578125 -1.203125 -0.578125q-0.71875 0 -1.203125 0.5625q-0.46875 0.5625 -0.46875 1.703125zm6.3276215 1.796875l2.015625 -0.296875q0.125 0.578125 0.515625 0.890625q0.40625 0.296875 1.109375 0.296875q0.78125 0 1.171875 -0.28125q0.265625 -0.203125 0.265625 -0.546875q0 -0.21875 -0.140625 -0.375q-0.15625 -0.140625 -0.671875 -0.265625q-2.4375 -0.53125 -3.078125 -0.984375q-0.90625 -0.609375 -0.90625 -1.703125q0 -0.984375 0.78125 -1.65625q0.78125 -0.671875 2.421875 -0.671875q1.546875 0 2.3125 0.515625q0.765625 0.5 1.046875 1.484375l-1.90625 0.359375q-0.109375 -0.453125 -0.453125 -0.6875q-0.34375 -0.234375 -0.96875 -0.234375q-0.796875 0 -1.140625 0.21875q-0.234375 0.15625 -0.234375 0.40625q0 0.21875 0.203125 0.375q0.28125 0.203125 1.875 0.5625q1.609375 0.359375 2.25 0.890625q0.625 0.546875 0.625 1.5q0 1.046875 -0.875 1.796875q-0.859375 0.75 -2.578125 0.75q-1.546875 0 -2.453125 -0.625q-0.90625 -0.640625 -1.1875 -1.71875zm15.479237 -3.1875l-1.96875 0.359375q-0.109375 -0.59375 -0.46875 -0.890625q-0.34375 -0.296875 -0.9062538 -0.296875q-0.75 0 -1.203125 0.515625q-0.453125 0.515625 -0.453125 1.734375q0 1.359375 0.453125 1.921875q0.453125 0.546875 1.21875 0.546875q0.5781288 0 0.9375038 -0.328125q0.375 -0.328125 0.515625 -1.109375l1.984375 0.328125q-0.3125 1.359375 -1.1875 2.0625q-0.875 0.6875 -2.3281288 0.6875q-1.671875 0 -2.671875 -1.046875q-0.984375 -1.0625 -0.984375 -2.921875q0 -1.875 0.984375 -2.921875q1.0 -1.046875 2.703125 -1.046875q1.3906288 0 2.2031288 0.59375q0.828125 0.59375 1.171875 1.8125zm3.4636078 5.359375l-2.015625 0l0 -7.59375l1.859375 0l0 1.078125q0.484375 -0.765625 0.859375 -1.0q0.390625 -0.25 0.875 -0.25q0.6875 0 1.328125 0.375l-0.625 1.75q-0.5 -0.328125 -0.9375 -0.328125q-0.421875 0 -0.71875 0.234375q-0.296875 0.234375 -0.46875 0.84375q-0.15625 0.609375 -0.15625 2.546875l0 2.34375zm3.7661285 -8.625l0 -1.859375l2.015625 0l0 1.859375l-2.015625 0zm0 8.625l0 -7.59375l2.015625 0l0 7.59375l-2.015625 0zm3.9938507 0l0 -10.484375l2.015625 0l0 3.765625q0.921875 -1.046875 2.203125 -1.046875q1.375 0 2.28125 1.0q0.921875 1.0 0.921875 2.890625q0 1.9375 -0.9375 3.0q-0.921875 1.046875 -2.25 1.046875q-0.640625 0 -1.28125 -0.328125q-0.625 -0.328125 -1.09375 -0.953125l0 1.109375l-1.859375 0zm2.0 -3.96875q0 1.1875 0.359375 1.75q0.53125 0.796875 1.390625 0.796875q0.671875 0 1.140625 -0.5625q0.46875 -0.578125 0.46875 -1.796875q0 -1.296875 -0.484375 -1.875q-0.46875 -0.578125 -1.203125 -0.578125q-0.71875 0 -1.203125 0.5625q-0.46875 0.5625 -0.46875 1.703125zm11.436996 1.546875l2.0 0.34375q-0.375 1.09375 -1.21875 1.671875q-0.828125 0.578125 -2.078125 0.578125q-1.984375 0 -2.9375 -1.296875q-0.75 -1.03125 -0.75 -2.625q0 -1.875 0.984375 -2.9375q0.984375 -1.078125 2.5 -1.078125q1.6875 0 2.671875 1.125q0.984375 1.109375 0.9375 3.421875l-5.03125 0q0.015625 0.890625 0.484375 1.390625q0.46875 0.5 1.15625 0.5q0.46875 0 0.78125 -0.25q0.328125 -0.265625 0.5 -0.84375zm0.109375 -2.03125q-0.015625 -0.875 -0.453125 -1.328125q-0.421875 -0.453125 -1.03125 -0.453125q-0.671875 0 -1.09375 0.484375q-0.421875 0.46875 -0.421875 1.296875l3.0 0zm5.572983 4.453125l-2.015625 0l0 -7.59375l1.859375 0l0 1.078125q0.484375 -0.765625 0.859375 -1.0q0.390625 -0.25 0.875 -0.25q0.6875 0 1.328125 0.375l-0.625 1.75q-0.5 -0.328125 -0.9375 -0.328125q-0.421875 0 -0.71875 0.234375q-0.296875 0.234375 -0.46875 0.84375q-0.15625 0.609375 -0.15625 2.546875l0 2.34375z" fill-rule="nonzero"/><path fill="#000000" fill-opacity="0.0" d="m101.78085 116.60497l109.88977 -39.905518" fill-rule="evenodd"/><path stroke="#000000" stroke-width="1.0" stroke-linejoin="round" stroke-linecap="butt" d="m101.78086 116.604965l104.2501 -37.857513" fill-rule="evenodd"/><path fill="#000000" stroke="#000000" stroke-width="1.0" stroke-linecap="butt" d="m206.59476 80.29999l3.701767 -3.101532l-4.8293457 -0.003540039z" fill-rule="evenodd"/><path fill="#000000" fill-opacity="0.0" d="m228.27426 116.78085l-109.88976 39.905518" fill-rule="evenodd"/><path stroke="#000000" stroke-width="1.0" stroke-linejoin="round" stroke-linecap="butt" d="m228.27426 116.78086l-104.25011 37.85752" fill-rule="evenodd"/><path fill="#000000" stroke="#000000" stroke-width="1.0" stroke-linecap="butt" d="m123.46036 153.08585l-3.7017593 3.101532l4.829338 0.003540039z" fill-rule="evenodd"/><path fill="#000000" fill-opacity="0.0" d="m118.3832 156.68767l109.88976 0l0 16.15747l-109.88976 0z" fill-rule="evenodd"/><path fill="#000000" d="m129.96133 169.48767l2.0 -9.546875l1.5625 0l0.96875 6.1875q0.1875 1.21875 0.25 2.34375q0.390625 -0.96875 1.328125 -2.609375l3.34375 -5.921875l1.59375 0l-2.0 9.546875l-1.25 0l1.0 -4.640625q0.34375 -1.609375 0.984375 -3.609375q-0.40625 0.9375 -1.015625 2.015625l-3.546875 6.234375l-1.234375 0l-0.953125 -6.125q-0.140625 -0.828125 -0.1875 -1.953125q-0.171875 1.265625 -0.328125 2.0l-1.265625 6.078125l-1.25 0zm16.039932 -2.34375l1.15625 0.109375q-0.25 0.859375 -1.140625 1.625q-0.890625 0.765625 -2.125 0.765625q-0.765625 0 -1.40625 -0.34375q-0.640625 -0.359375 -0.984375 -1.03125q-0.328125 -0.6875 -0.328125 -1.546875q0 -1.140625 0.515625 -2.203125q0.53125 -1.0625 1.359375 -1.578125q0.84375 -0.515625 1.8125 -0.515625q1.234375 0 1.96875 0.765625q0.75 0.765625 0.75 2.09375q0 0.5 -0.09375 1.046875l-5.09375 0q-0.03125 0.1875 -0.03125 0.359375q0 0.96875 0.4375 1.484375q0.453125 0.5 1.109375 0.5q0.59375 0 1.171875 -0.390625q0.59375 -0.390625 0.921875 -1.140625zm-3.421875 -1.71875l3.875 0q0.015625 -0.1875 0.015625 -0.265625q0 -0.875 -0.453125 -1.34375q-0.4375 -0.484375 -1.125 -0.484375q-0.765625 0 -1.390625 0.53125q-0.609375 0.515625 -0.921875 1.5625zm5.8656006 1.703125l1.1875 -0.078125q0 0.515625 0.15625 0.875q0.15625 0.359375 0.578125 0.59375q0.421875 0.21875 0.96875 0.21875q0.78125 0 1.171875 -0.3125q0.390625 -0.3125 0.390625 -0.734375q0 -0.3125 -0.234375 -0.578125q-0.234375 -0.28125 -1.171875 -0.671875q-0.9375 -0.40625 -1.1875 -0.578125q-0.4375 -0.265625 -0.671875 -0.625q-0.21875 -0.359375 -0.21875 -0.828125q0 -0.8125 0.65625 -1.390625q0.65625 -0.59375 1.828125 -0.59375q1.296875 0 1.96875 0.609375q0.6875 0.59375 0.71875 1.578125l-1.15625 0.078125q-0.03125 -0.625 -0.453125 -0.984375q-0.40625 -0.375 -1.171875 -0.375q-0.609375 0 -0.953125 0.28125q-0.328125 0.28125 -0.328125 0.609375q0 0.3125 0.296875 0.5625q0.1875 0.171875 1.0 0.53125q1.359375 0.578125 1.703125 0.921875q0.5625 0.53125 0.5625 1.3125q0 0.515625 -0.3125 1.015625q-0.3125 0.484375 -0.96875 0.78125q-0.640625 0.296875 -1.515625 0.296875q-1.203125 0 -2.046875 -0.59375q-0.84375 -0.59375 -0.796875 -1.921875zm6.6640625 0l1.1875 -0.078125q0 0.515625 0.15625 0.875q0.15625 0.359375 0.578125 0.59375q0.421875 0.21875 0.96875 0.21875q0.78125 0 1.171875 -0.3125q0.390625 -0.3125 0.390625 -0.734375q0 -0.3125 -0.234375 -0.578125q-0.234375 -0.28125 -1.171875 -0.671875q-0.9375 -0.40625 -1.1875 -0.578125q-0.4375 -0.265625 -0.671875 -0.625q-0.21875 -0.359375 -0.21875 -0.828125q0 -0.8125 0.65625 -1.390625q0.65625 -0.59375 1.828125 -0.59375q1.296875 0 1.96875 0.609375q0.6875 0.59375 0.71875 1.578125l-1.15625 0.078125q-0.03125 -0.625 -0.453125 -0.984375q-0.40625 -0.375 -1.171875 -0.375q-0.609375 0 -0.953125 0.28125q-0.328125 0.28125 -0.328125 0.609375q0 0.3125 0.296875 0.5625q0.1875 0.171875 1.0 0.53125q1.359375 0.578125 1.703125 0.921875q0.5625 0.53125 0.5625 1.3125q0 0.515625 -0.3125 1.015625q-0.3125 0.484375 -0.96875 0.78125q-0.640625 0.296875 -1.515625 0.296875q-1.203125 0 -2.046875 -0.59375q-0.84375 -0.59375 -0.796875 -1.921875zm11.2265625 1.5q-0.625 0.53125 -1.1875 0.78125q-0.5625 0.234375 -1.203125 0.234375q-0.96875 0 -1.5625 -0.5625q-0.578125 -0.5625 -0.578125 -1.4375q0 -0.578125 0.265625 -1.015625q0.265625 -0.453125 0.703125 -0.71875q0.4375 -0.28125 1.0625 -0.390625q0.40625 -0.078125 1.515625 -0.125q1.109375 -0.046875 1.59375 -0.234375q0.125 -0.484375 0.125 -0.8125q0 -0.40625 -0.296875 -0.640625q-0.40625 -0.328125 -1.1875 -0.328125q-0.75 0 -1.21875 0.328125q-0.46875 0.328125 -0.6875 0.9375l-1.1875 -0.109375q0.359375 -1.015625 1.140625 -1.5625q0.796875 -0.546875 2.0 -0.546875q1.28125 0 2.03125 0.609375q0.578125 0.453125 0.578125 1.1875q0 0.546875 -0.15625 1.28125l-0.390625 1.71875q-0.1875 0.8125 -0.1875 1.328125q0 0.328125 0.15625 0.9375l-1.203125 0q-0.09375 -0.34375 -0.125 -0.859375zm0.421875 -2.640625q-0.234375 0.09375 -0.53125 0.15625q-0.28125 0.046875 -0.9375 0.109375q-1.03125 0.078125 -1.453125 0.21875q-0.421875 0.140625 -0.640625 0.453125q-0.21875 0.296875 -0.21875 0.671875q0 0.5 0.34375 0.828125q0.34375 0.3125 0.984375 0.3125q0.578125 0 1.109375 -0.3125q0.546875 -0.3125 0.859375 -0.859375q0.3125 -0.5625 0.484375 -1.578125zm2.2562256 4.125l1.1875 0.109375q0 0.40625 0.109375 0.609375q0.109375 0.203125 0.34375 0.3125q0.328125 0.140625 0.828125 0.140625q1.0625 0 1.53125 -0.546875q0.3125 -0.375 0.578125 -1.625l0.109375 -0.5625q-0.921875 0.9375 -1.953125 0.9375q-1.046875 0 -1.75 -0.765625q-0.703125 -0.78125 -0.703125 -2.1875q0 -1.171875 0.546875 -2.140625q0.5625 -0.984375 1.328125 -1.46875q0.765625 -0.5 1.578125 -0.5q1.359375 0 2.09375 1.28125l0.234375 -1.125l1.078125 0l-1.390625 6.671875q-0.21875 1.09375 -0.59375 1.703125q-0.375 0.625 -1.03125 0.953125q-0.65625 0.34375 -1.53125 0.34375q-0.828125 0 -1.4375 -0.21875q-0.59375 -0.203125 -0.890625 -0.625q-0.296875 -0.40625 -0.296875 -0.953125q0 -0.15625 0.03125 -0.34375zm1.46875 -3.6875q0 0.71875 0.140625 1.078125q0.203125 0.5 0.5625 0.765625q0.359375 0.25 0.796875 0.25q0.578125 0 1.140625 -0.40625q0.578125 -0.40625 0.9375 -1.25q0.359375 -0.859375 0.359375 -1.625q0 -0.859375 -0.484375 -1.359375q-0.46875 -0.515625 -1.15625 -0.515625q-0.4375 0 -0.84375 0.234375q-0.390625 0.234375 -0.75 0.703125q-0.34375 0.46875 -0.53125 1.140625q-0.171875 0.65625 -0.171875 0.984375zm11.084351 0.71875l1.15625 0.109375q-0.25 0.859375 -1.140625 1.625q-0.890625 0.765625 -2.125 0.765625q-0.765625 0 -1.40625 -0.34375q-0.640625 -0.359375 -0.984375 -1.03125q-0.328125 -0.6875 -0.328125 -1.546875q0 -1.140625 0.515625 -2.203125q0.53125 -1.0625 1.359375 -1.578125q0.84375 -0.515625 1.8125 -0.515625q1.234375 0 1.96875 0.765625q0.75 0.765625 0.75 2.09375q0 0.5 -0.09375 1.046875l-5.09375 0q-0.03125 0.1875 -0.03125 0.359375q0 0.96875 0.4375 1.484375q0.453125 0.5 1.109375 0.5q0.59375 0 1.171875 -0.390625q0.59375 -0.390625 0.921875 -1.140625zm-3.421875 -1.71875l3.875 0q0.015625 -0.1875 0.015625 -0.265625q0 -0.875 -0.453125 -1.34375q-0.4375 -0.484375 -1.125 -0.484375q-0.765625 0 -1.390625 0.53125q-0.609375 0.515625 -0.921875 1.5625zm5.8656006 1.703125l1.1875 -0.078125q0 0.515625 0.15625 0.875q0.15625 0.359375 0.578125 0.59375q0.421875 0.21875 0.96875 0.21875q0.78125 0 1.171875 -0.3125q0.390625 -0.3125 0.390625 -0.734375q0 -0.3125 -0.234375 -0.578125q-0.234375 -0.28125 -1.171875 -0.671875q-0.9375 -0.40625 -1.1875 -0.578125q-0.4375 -0.265625 -0.671875 -0.625q-0.21875 -0.359375 -0.21875 -0.828125q0 -0.8125 0.65625 -1.390625q0.65625 -0.59375 1.828125 -0.59375q1.296875 0 1.96875 0.609375q0.6875 0.59375 0.71875 1.578125l-1.15625 0.078125q-0.03125 -0.625 -0.453125 -0.984375q-0.40625 -0.375 -1.171875 -0.375q-0.609375 0 -0.953125 0.28125q-0.328125 0.28125 -0.328125 0.609375q0 0.3125 0.296875 0.5625q0.1875 0.171875 1.0 0.53125q1.359375 0.578125 1.703125 0.921875q0.5625 0.53125 0.5625 1.3125q0 0.515625 -0.3125 1.015625q-0.3125 0.484375 -0.96875 0.78125q-0.640625 0.296875 -1.515625 0.296875q-1.203125 0 -2.046875 -0.59375q-0.84375 -0.59375 -0.796875 -1.921875z" fill-rule="nonzero"/><path fill="#000000" fill-opacity="0.0" d="m62.503937 60.362206l149.16536 0l0 16.157478l-149.16536 0z" fill-rule="evenodd"/><path fill="#000000" d="m86.82749 69.802826l1.265625 0.171875q-0.59375 1.65625 -1.75 2.5q-1.140625 0.84375 -2.5625 0.84375q-1.734375 0 -2.765625 -1.046875q-1.015625 -1.0625 -1.015625 -3.046875q0 -2.578125 1.5625 -4.265625q1.375 -1.4999962 3.421875 -1.4999962q1.515625 0 2.453125 0.8124962q0.953125 0.8125 1.09375 2.1875l-1.1875 0.109375q-0.1875 -1.03125 -0.78125 -1.546875q-0.59375 -0.515625 -1.515625 -0.515625q-1.75 0 -2.828125 1.5625q-0.9375 1.34375 -0.9375 3.1875q0 1.46875 0.71875 2.25q0.71875 0.765625 1.875 0.765625q1.0 0 1.796875 -0.640625q0.796875 -0.65625 1.15625 -1.828125zm2.2501526 0.734375q0 -2.015625 1.1875 -3.34375q0.984375 -1.09375 2.578125 -1.09375q1.25 0 2.015625 0.78125q0.765625 0.78125 0.765625 2.109375q0 1.1875 -0.484375 2.21875q-0.484375 1.015625 -1.375 1.5625q-0.890625 0.546875 -1.875 0.546875q-0.796875 0 -1.46875 -0.34375q-0.65625 -0.34375 -1.0 -0.96875q-0.34375 -0.640625 -0.34375 -1.46875zm1.171875 -0.109375q0 0.96875 0.46875 1.484375q0.46875 0.5 1.1875 0.5q0.375 0 0.75 -0.15625q0.375 -0.15625 0.6875 -0.46875q0.328125 -0.3125 0.546875 -0.703125q0.21875 -0.40625 0.359375 -0.875q0.203125 -0.640625 0.203125 -1.234375q0 -0.9375 -0.46875 -1.453125q-0.46875 -0.515625 -1.1875 -0.515625q-0.5625 0 -1.015625 0.265625q-0.453125 0.265625 -0.828125 0.78125q-0.359375 0.5 -0.53125 1.171875q-0.171875 0.671875 -0.171875 1.203125zm6.0218506 2.734375l1.453125 -6.90625l1.0625 0l-0.25 1.203125q0.6875 -0.71875 1.296875 -1.03125q0.609375 -0.328125 1.234375 -0.328125q0.84375 0 1.3125 0.453125q0.484375 0.453125 0.484375 1.21875q0 0.375 -0.171875 1.203125l-0.875 4.1875l-1.171875 0l0.921875 -4.375q0.125 -0.640625 0.125 -0.953125q0 -0.34375 -0.234375 -0.546875q-0.234375 -0.21875 -0.6875 -0.21875q-0.90625 0 -1.609375 0.65625q-0.703125 0.640625 -1.03125 2.21875l-0.671875 3.21875l-1.1875 0zm7.4124756 0l1.453125 -6.90625l1.0625 0l-0.25 1.203125q0.6875 -0.71875 1.296875 -1.03125q0.609375 -0.328125 1.234375 -0.328125q0.84375 0 1.3125 0.453125q0.484375 0.453125 0.484375 1.21875q0 0.375 -0.171875 1.203125l-0.875 4.1875l-1.171875 0l0.921875 -4.375q0.125 -0.640625 0.125 -0.953125q0 -0.34375 -0.234375 -0.546875q-0.234375 -0.21875 -0.6875 -0.21875q-0.90625 0 -1.609375 0.65625q-0.703125 0.640625 -1.03125 2.21875l-0.671875 3.21875l-1.1875 0zm12.490601 -2.34375l1.15625 0.109375q-0.25 0.859375 -1.140625 1.625q-0.890625 0.765625 -2.125 0.765625q-0.765625 0 -1.40625 -0.34375q-0.640625 -0.359375 -0.984375 -1.03125q-0.328125 -0.6875 -0.328125 -1.546875q0 -1.140625 0.515625 -2.203125q0.53125 -1.0625 1.359375 -1.578125q0.84375 -0.515625 1.8125 -0.515625q1.234375 0 1.96875 0.765625q0.75 0.765625 0.75 2.09375q0 0.5 -0.09375 1.046875l-5.09375 0q-0.03125 0.1875 -0.03125 0.359375q0 0.96875 0.4375 1.484375q0.453125 0.5 1.109375 0.5q0.59375 0 1.171875 -0.390625q0.59375 -0.390625 0.921875 -1.140625zm-3.421875 -1.71875l3.875 0q0.015625 -0.1875 0.015625 -0.265625q0 -0.875 -0.453125 -1.34375q-0.4375 -0.484375 -1.125 -0.484375q-0.765625 0 -1.390625 0.53125q-0.609375 0.515625 -0.921875 1.5625zm10.537476 1.546875l1.171875 0.125q-0.4375 1.296875 -1.265625 1.921875q-0.8125 0.625 -1.84375 0.625q-1.140625 0 -1.84375 -0.71875q-0.6875 -0.734375 -0.6875 -2.046875q0 -1.125 0.4375 -2.21875q0.453125 -1.09375 1.28125 -1.65625q0.84375 -0.578125 1.921875 -0.578125q1.109375 0 1.765625 0.625q0.65625 0.625 0.65625 1.65625l-1.15625 0.078125q-0.015625 -0.65625 -0.390625 -1.015625q-0.375 -0.375 -0.984375 -0.375q-0.703125 0 -1.234375 0.453125q-0.515625 0.4375 -0.8125 1.359375q-0.296875 0.90625 -0.296875 1.75q0 0.890625 0.390625 1.34375q0.390625 0.4375 0.96875 0.4375q0.5625 0 1.078125 -0.4375q0.53125 -0.4375 0.84375 -1.328125zm4.6484375 1.5625l-0.203125 0.953125q-0.421875 0.109375 -0.8125 0.109375q-0.703125 0 -1.125 -0.34375q-0.3125 -0.25 -0.3125 -0.703125q0 -0.234375 0.171875 -1.046875l0.828125 -4.015625l-0.921875 0l0.1875 -0.90625l0.9375 0l0.34375 -1.703125l1.3593826 -0.8124962l-0.5312576 2.5156212l1.1562576 0l-0.1875 0.90625l-1.1562576 0l-0.796875 3.8125q-0.15625 0.734375 -0.15625 0.875q0 0.21875 0.109375 0.328125q0.125 0.109375 0.40625 0.109375q0.390625 0 0.703125 -0.078125zm7.999733 -0.59375l0 -2.609375l-2.59375 0l0 -1.09375l2.59375 0l0 -2.59375l1.109375 0l0 2.59375l2.59375 0l0 1.09375l-2.59375 0l0 2.609375l-1.109375 0zm8.236404 -0.8125l1.1875 -0.078125q0 0.515625 0.15625 0.875q0.15625 0.359375 0.578125 0.59375q0.421875 0.21875 0.96875 0.21875q0.78125 0 1.171875 -0.3125q0.390625 -0.3125 0.390625 -0.734375q0 -0.3125 -0.234375 -0.578125q-0.234375 -0.28125 -1.171875 -0.671875q-0.9375 -0.40625 -1.1875 -0.578125q-0.4375 -0.265625 -0.671875 -0.625q-0.21875 -0.359375 -0.21875 -0.828125q0 -0.8125 0.65625 -1.390625q0.65625 -0.59375 1.828125 -0.59375q1.296875 0 1.96875 0.609375q0.6875 0.59375 0.71875 1.578125l-1.15625 0.078125q-0.03125 -0.625 -0.453125 -0.984375q-0.40625 -0.375 -1.171875 -0.375q-0.609375 0 -0.953125 0.28125q-0.328125 0.28125 -0.328125 0.609375q0 0.3125 0.296875 0.5625q0.1875 0.171875 1.0 0.53125q1.359375 0.578125 1.703125 0.921875q0.5625 0.53125 0.5625 1.3125q0 0.515625 -0.3125 1.015625q-0.3125 0.484375 -0.96875 0.78125q-0.640625 0.296875 -1.515625 0.296875q-1.203125 0 -2.046875 -0.59375q-0.84375 -0.59375 -0.796875 -1.921875zm11.2734375 1.109375q-1.234375 1.40625 -2.546875 1.40625q-0.796875 0 -1.296875 -0.453125q-0.484375 -0.46875 -0.484375 -1.125q0 -0.4375 0.21875 -1.5l0.84375 -3.984375l1.171875 0l-0.921875 4.40625q-0.109375 0.5625 -0.109375 0.859375q0 0.390625 0.234375 0.609375q0.234375 0.21875 0.703125 0.21875q0.484375 0 0.953125 -0.234375q0.484375 -0.234375 0.8125 -0.640625q0.34375 -0.421875 0.5625 -0.984375q0.140625 -0.359375 0.328125 -1.25l0.625 -2.984375l1.1875 0l-1.453125 6.90625l-1.078125 0l0.25 -1.25zm2.6937256 1.25l2.0 -9.546871l1.171875 0l-0.703125 3.4218712q0.5625 -0.515625 1.015625 -0.71875q0.453125 -0.21875 0.953125 -0.21875q0.96875 0 1.609375 0.71875q0.640625 0.71875 0.640625 2.09375q0 0.921875 -0.265625 1.6875q-0.25 0.765625 -0.640625 1.28125q-0.375 0.515625 -0.78125 0.828125q-0.40625 0.296875 -0.84375 0.453125q-0.421875 0.15625 -0.828125 0.15625q-0.6875 0 -1.203125 -0.359375q-0.515625 -0.359375 -0.8125 -1.109375l-0.265625 1.3125l-1.046875 0zm1.75 -2.84375l0 0.234375q0 0.875 0.421875 1.34375q0.421875 0.453125 1.046875 0.453125q0.625 0 1.140625 -0.421875q0.515625 -0.4375 0.84375 -1.34375q0.328125 -0.921875 0.328125 -1.703125q0 -0.875 -0.421875 -1.359375q-0.40625 -0.484375 -1.03125 -0.484375q-0.640625 0 -1.171875 0.5q-0.53125 0.484375 -0.890625 1.515625q-0.265625 0.765625 -0.265625 1.265625zm5.7718506 0.484375l1.1875 -0.078125q0 0.515625 0.15625 0.875q0.15625 0.359375 0.578125 0.59375q0.421875 0.21875 0.96875 0.21875q0.78125 0 1.171875 -0.3125q0.390625 -0.3125 0.390625 -0.734375q0 -0.3125 -0.234375 -0.578125q-0.234375 -0.28125 -1.171875 -0.671875q-0.9375 -0.40625 -1.1875 -0.578125q-0.4375 -0.265625 -0.671875 -0.625q-0.21875 -0.359375 -0.21875 -0.828125q0 -0.8125 0.65625 -1.390625q0.65625 -0.59375 1.828125 -0.59375q1.296875 0 1.96875 0.609375q0.6875 0.59375 0.71875 1.578125l-1.15625 0.078125q-0.03125 -0.625 -0.453125 -0.984375q-0.40625 -0.375 -1.171875 -0.375q-0.609375 0 -0.953125 0.28125q-0.328125 0.28125 -0.328125 0.609375q0 0.3125 0.296875 0.5625q0.1875 0.171875 1.0 0.53125q1.359375 0.578125 1.703125 0.921875q0.5625 0.53125 0.5625 1.3125q0 0.515625 -0.3125 1.015625q-0.3125 0.484375 -0.96875 0.78125q-0.640625 0.296875 -1.515625 0.296875q-1.203125 0 -2.046875 -0.59375q-0.84375 -0.59375 -0.796875 -1.921875zm11.3359375 -0.15625l1.171875 0.125q-0.4375 1.296875 -1.265625 1.921875q-0.8125 0.625 -1.84375 0.625q-1.140625 0 -1.84375 -0.71875q-0.6875 -0.734375 -0.6875 -2.046875q0 -1.125 0.4375 -2.21875q0.453125 -1.09375 1.28125 -1.65625q0.84375 -0.578125 1.921875 -0.578125q1.109375 0 1.765625 0.625q0.65625 0.625 0.65625 1.65625l-1.15625 0.078125q-0.015625 -0.65625 -0.390625 -1.015625q-0.375 -0.375 -0.984375 -0.375q-0.703125 0 -1.234375 0.453125q-0.515625 0.4375 -0.8125 1.359375q-0.296875 0.90625 -0.296875 1.75q0 0.890625 0.390625 1.34375q0.390625 0.4375 0.96875 0.4375q0.5625 0 1.078125 -0.4375q0.53125 -0.4375 0.84375 -1.328125zm1.8828125 2.515625l1.453125 -6.90625l1.03125 0l-0.28125 1.40625q0.53125 -0.796875 1.03125 -1.171875q0.515625 -0.390625 1.046875 -0.390625q0.359375 0 0.875 0.25l-0.484375 1.09375q-0.3125 -0.21875 -0.671875 -0.21875q-0.625 0 -1.28125 0.6875q-0.640625 0.6875 -1.015625 2.484375l-0.578125 2.765625l-1.125 0zm6.1102448 -8.203125l0.28125 -1.3437462l1.171875 0l-0.28125 1.3437462l-1.171875 0zm-1.71875 8.203125l1.453125 -6.90625l1.171875 0l-1.4375 6.90625l-1.1875 0zm3.007965 0l2.0 -9.546871l1.171875 0l-0.703125 3.4218712q0.5625 -0.515625 1.015625 -0.71875q0.453125 -0.21875 0.95310974 -0.21875q0.96875 0 1.609375 0.71875q0.640625 0.71875 0.640625 2.09375q0 0.921875 -0.265625 1.6875q-0.25 0.765625 -0.640625 1.28125q-0.375 0.515625 -0.78125 0.828125q-0.40625 0.296875 -0.84373474 0.453125q-0.421875 0.15625 -0.828125 0.15625q-0.6875 0 -1.203125 -0.359375q-0.515625 -0.359375 -0.8125 -1.109375l-0.265625 1.3125l-1.046875 0zm1.75 -2.84375l0 0.234375q0 0.875 0.421875 1.34375q0.421875 0.453125 1.046875 0.453125q0.625 0 1.1406097 -0.421875q0.515625 -0.4375 0.84375 -1.34375q0.328125 -0.921875 0.328125 -1.703125q0 -0.875 -0.421875 -1.359375q-0.40625 -0.484375 -1.0312347 -0.484375q-0.640625 0 -1.171875 0.5q-0.53125 0.484375 -0.890625 1.515625q-0.265625 0.765625 -0.265625 1.265625zm10.740585 0.5l1.15625 0.109375q-0.25 0.859375 -1.140625 1.625q-0.890625 0.765625 -2.125 0.765625q-0.765625 0 -1.40625 -0.34375q-0.640625 -0.359375 -0.984375 -1.03125q-0.328125 -0.6875 -0.328125 -1.546875q0 -1.140625 0.515625 -2.203125q0.53125 -1.0625 1.359375 -1.578125q0.84375 -0.515625 1.8125 -0.515625q1.234375 0 1.96875 0.765625q0.75 0.765625 0.75 2.09375q0 0.5 -0.09375 1.046875l-5.09375 0q-0.03125 0.1875 -0.03125 0.359375q0 0.96875 0.4375 1.484375q0.453125 0.5 1.109375 0.5q0.59375 0 1.171875 -0.390625q0.59375 -0.390625 0.921875 -1.140625zm-3.421875 -1.71875l3.875 0q0.015625 -0.1875 0.015625 -0.265625q0 -0.875 -0.453125 -1.34375q-0.4375 -0.484375 -1.125 -0.484375q-0.765625 0 -1.390625 0.53125q-0.609375 0.515625 -0.921875 1.5625z" fill-rule="nonzero"/><path fill="#cfe2f3" d="m418.4987 156.69292l0 0c0 -31.310638 25.382294 -56.692917 56.6929 -56.692917l0 0c15.035919 0 29.455963 5.9729843 40.08795 16.604973c10.631958 10.631981 16.60498 25.05204 16.60498 40.087944l0 0c0 31.310623 -25.382294 56.692917 -56.692932 56.692917l0 0c-31.310608 0 -56.6929 -25.382294 -56.6929 -56.692917z" fill-rule="evenodd"/><path stroke="#000000" stroke-width="1.0" stroke-linejoin="round" stroke-linecap="butt" d="m418.4987 156.69292l0 0c0 -31.310638 25.382294 -56.692917 56.6929 -56.692917l0 0c15.035919 0 29.455963 5.9729843 40.08795 16.604973c10.631958 10.631981 16.60498 25.05204 16.60498 40.087944l0 0c0 31.310623 -25.382294 56.692917 -56.692932 56.692917l0 0c-31.310608 0 -56.6929 -25.382294 -56.6929 -56.692917z" fill-rule="evenodd"/><path fill="#000000" d="m442.86246 161.77292l0 -10.484375l3.40625 0q1.921875 0 2.515625 0.15625q0.90625 0.234375 1.515625 1.03125q0.609375 0.78125 0.609375 2.03125q0 0.96875 -0.359375 1.625q-0.34375 0.65625 -0.890625 1.03125q-0.53125 0.375 -1.09375 0.5q-0.765625 0.15625 -2.203125 0.15625l-1.375 0l0 3.953125l-2.125 0zm2.125 -8.71875l0 2.984375l1.15625 0q1.25 0 1.671875 -0.15625q0.421875 -0.171875 0.65625 -0.515625q0.25 -0.359375 0.25 -0.828125q0 -0.578125 -0.34375 -0.9375q-0.328125 -0.375 -0.84375 -0.46875q-0.375 -0.078125 -1.53125 -0.078125l-1.015625 0zm12.634979 8.71875l0 -1.140625q-0.40625 0.609375 -1.09375 0.96875q-0.671875 0.34375 -1.421875 0.34375q-0.765625 0 -1.375 -0.328125q-0.609375 -0.34375 -0.875 -0.953125q-0.265625 -0.609375 -0.265625 -1.6875l0 -4.796875l2.0 0l0 3.484375q0 1.609375 0.109375 1.96875q0.109375 0.359375 0.40625 0.578125q0.296875 0.203125 0.75 0.203125q0.515625 0 0.921875 -0.28125q0.40625 -0.28125 0.546875 -0.703125q0.15625 -0.421875 0.15625 -2.046875l0 -3.203125l2.015625 0l0 7.59375l-1.875 0zm3.8745117 0l0 -10.484375l2.015625 0l0 3.765625q0.921875 -1.046875 2.203125 -1.046875q1.375 0 2.28125 1.0q0.921875 1.0 0.921875 2.890625q0 1.9375 -0.9375 3.0q-0.921875 1.046875 -2.25 1.046875q-0.640625 0 -1.28125 -0.328125q-0.625 -0.328125 -1.09375 -0.953125l0 1.109375l-1.859375 0zm2.0 -3.96875q0 1.1875 0.359375 1.75q0.53125 0.796875 1.390625 0.796875q0.671875 0 1.140625 -0.5625q0.46875 -0.578125 0.46875 -1.796875q0 -1.296875 -0.484375 -1.875q-0.46875 -0.578125 -1.203125 -0.578125q-0.71875 0 -1.203125 0.5625q-0.46875 0.5625 -0.46875 1.703125zm7.030731 3.96875l0 -10.484375l2.015625 0l0 10.484375l-2.015625 0zm4.071991 -8.625l0 -1.859375l2.015625 0l0 1.859375l-2.015625 0zm0 8.625l0 -7.59375l2.015625 0l0 7.59375l-2.015625 0zm3.3688354 -2.171875l2.015625 -0.296875q0.125 0.578125 0.515625 0.890625q0.40625 0.296875 1.109375 0.296875q0.78125 0 1.171875 -0.28125q0.265625 -0.203125 0.265625 -0.546875q0 -0.21875 -0.140625 -0.375q-0.15625 -0.140625 -0.671875 -0.265625q-2.4375 -0.53125 -3.078125 -0.984375q-0.90625 -0.609375 -0.90625 -1.703125q0 -0.984375 0.78125 -1.65625q0.78125 -0.671875 2.421875 -0.671875q1.546875 0 2.3125 0.515625q0.765625 0.5 1.046875 1.484375l-1.90625 0.359375q-0.109375 -0.453125 -0.453125 -0.6875q-0.34375 -0.234375 -0.96875 -0.234375q-0.796875 0 -1.140625 0.21875q-0.234375 0.15625 -0.234375 0.40625q0 0.21875 0.203125 0.375q0.28125 0.203125 1.875 0.5625q1.609375 0.359375 2.25 0.890625q0.625 0.546875 0.625 1.5q0 1.046875 -0.875 1.796875q-0.859375 0.75 -2.578125 0.75q-1.546875 0 -2.453125 -0.625q-0.90625 -0.640625 -1.1875 -1.71875zm10.869873 -8.3125l0 3.84375q0.96875 -1.125 2.3125 -1.125q0.703125 0 1.25 0.265625q0.5625 0.25 0.84375 0.65625q0.28125 0.390625 0.390625 0.875q0.109375 0.484375 0.109375 1.515625l0 4.453125l-2.015625 0l0 -4.015625q0 -1.1875 -0.125 -1.515625q-0.109375 -0.328125 -0.40625 -0.515625q-0.28125 -0.1875 -0.71875 -0.1875q-0.5 0 -0.890625 0.25q-0.390625 0.234375 -0.578125 0.734375q-0.171875 0.484375 -0.171875 1.4375l0 3.8125l-2.015625 0l0 -10.484375l2.015625 0zm11.343231 8.0625l2.0 0.34375q-0.375 1.09375 -1.21875 1.671875q-0.828125 0.578125 -2.078125 0.578125q-1.984375 0 -2.9375 -1.296875q-0.75 -1.03125 -0.75 -2.625q0 -1.875 0.984375 -2.9375q0.984375 -1.078125 2.5 -1.078125q1.6875 0 2.671875 1.125q0.984375 1.109375 0.9375 3.421875l-5.03125 0q0.015625 0.890625 0.484375 1.390625q0.46875 0.5 1.15625 0.5q0.46875 0 0.78125 -0.25q0.328125 -0.265625 0.5 -0.84375zm0.109375 -2.03125q-0.015625 -0.875 -0.453125 -1.328125q-0.421875 -0.453125 -1.03125 -0.453125q-0.671875 0 -1.09375 0.484375q-0.421875 0.46875 -0.421875 1.296875l3.0 0zm5.572998 4.453125l-2.015625 0l0 -7.59375l1.859375 0l0 1.078125q0.484375 -0.765625 0.859375 -1.0q0.390625 -0.25 0.875 -0.25q0.6875 0 1.328125 0.375l-0.625 1.75q-0.5 -0.328125 -0.9375 -0.328125q-0.421875 0 -0.71875 0.234375q-0.296875 0.234375 -0.46875 0.84375q-0.15625 0.609375 -0.15625 2.546875l0 2.34375z" fill-rule="nonzero"/><path fill="#000000" fill-opacity="0.0" d="m325.0551 76.69292l110.04724 39.90551" fill-rule="evenodd"/><path stroke="#000000" stroke-width="1.0" stroke-linejoin="round" stroke-linecap="butt" d="m330.6957 78.73832l104.40665 37.860107" fill-rule="evenodd"/><path fill="#000000" stroke="#000000" stroke-width="1.0" stroke-linecap="butt" d="m331.2588 77.185524l-4.8293457 0.0057525635l3.703186 3.0998306z" fill-rule="evenodd"/><path fill="#000000" fill-opacity="0.0" d="m325.13385 60.362206l109.88977 0l0 16.157478l-109.88977 0z" fill-rule="evenodd"/><path fill="#000000" d="m344.1651 69.802826l1.265625 0.171875q-0.59375 1.65625 -1.75 2.5q-1.140625 0.84375 -2.5625 0.84375q-1.734375 0 -2.765625 -1.046875q-1.015625 -1.0625 -1.015625 -3.046875q0 -2.578125 1.5625 -4.265625q1.375 -1.4999962 3.421875 -1.4999962q1.515625 0 2.453125 0.8124962q0.953125 0.8125 1.09375 2.1875l-1.1875 0.109375q-0.1875 -1.03125 -0.78125 -1.546875q-0.59375 -0.515625 -1.515625 -0.515625q-1.75 0 -2.828125 1.5625q-0.9375 1.34375 -0.9375 3.1875q0 1.46875 0.71875 2.25q0.71875 0.765625 1.875 0.765625q1.0 0 1.796875 -0.640625q0.796875 -0.65625 1.15625 -1.828125zm2.2501526 0.734375q0 -2.015625 1.1875 -3.34375q0.984375 -1.09375 2.578125 -1.09375q1.25 0 2.015625 0.78125q0.765625 0.78125 0.765625 2.109375q0 1.1875 -0.484375 2.21875q-0.484375 1.015625 -1.375 1.5625q-0.890625 0.546875 -1.875 0.546875q-0.796875 0 -1.46875 -0.34375q-0.65625 -0.34375 -1.0 -0.96875q-0.34375 -0.640625 -0.34375 -1.46875zm1.171875 -0.109375q0 0.96875 0.46875 1.484375q0.46875 0.5 1.1875 0.5q0.375 0 0.75 -0.15625q0.375 -0.15625 0.6875 -0.46875q0.328125 -0.3125 0.546875 -0.703125q0.21875 -0.40625 0.359375 -0.875q0.203125 -0.640625 0.203125 -1.234375q0 -0.9375 -0.46875 -1.453125q-0.46875 -0.515625 -1.1875 -0.515625q-0.5625 0 -1.015625 0.265625q-0.453125 0.265625 -0.828125 0.78125q-0.359375 0.5 -0.53125 1.171875q-0.171875 0.671875 -0.171875 1.203125zm6.0218506 2.734375l1.453125 -6.90625l1.0625 0l-0.25 1.203125q0.6875 -0.71875 1.296875 -1.03125q0.609375 -0.328125 1.234375 -0.328125q0.84375 0 1.3125 0.453125q0.484375 0.453125 0.484375 1.21875q0 0.375 -0.171875 1.203125l-0.875 4.1875l-1.171875 0l0.921875 -4.375q0.125 -0.640625 0.125 -0.953125q0 -0.34375 -0.234375 -0.546875q-0.234375 -0.21875 -0.6875 -0.21875q-0.90625 0 -1.609375 0.65625q-0.703125 0.640625 -1.03125 2.21875l-0.671875 3.21875l-1.1875 0zm7.4124756 0l1.453125 -6.90625l1.0625 0l-0.25 1.203125q0.6875 -0.71875 1.296875 -1.03125q0.609375 -0.328125 1.234375 -0.328125q0.84375 0 1.3125 0.453125q0.484375 0.453125 0.484375 1.21875q0 0.375 -0.171875 1.203125l-0.875 4.1875l-1.171875 0l0.921875 -4.375q0.125 -0.640625 0.125 -0.953125q0 -0.34375 -0.234375 -0.546875q-0.234375 -0.21875 -0.6875 -0.21875q-0.90625 0 -1.609375 0.65625q-0.703125 0.640625 -1.03125 2.21875l-0.671875 3.21875l-1.1875 0zm12.490601 -2.34375l1.15625 0.109375q-0.25 0.859375 -1.140625 1.625q-0.890625 0.765625 -2.125 0.765625q-0.765625 0 -1.40625 -0.34375q-0.640625 -0.359375 -0.984375 -1.03125q-0.328125 -0.6875 -0.328125 -1.546875q0 -1.140625 0.515625 -2.203125q0.53125 -1.0625 1.359375 -1.578125q0.84375 -0.515625 1.8125 -0.515625q1.234375 0 1.96875 0.765625q0.75 0.765625 0.75 2.09375q0 0.5 -0.09375 1.046875l-5.09375 0q-0.03125 0.1875 -0.03125 0.359375q0 0.96875 0.4375 1.484375q0.453125 0.5 1.109375 0.5q0.59375 0 1.171875 -0.390625q0.59375 -0.390625 0.921875 -1.140625zm-3.421875 -1.71875l3.875 0q0.015625 -0.1875 0.015625 -0.265625q0 -0.875 -0.453125 -1.34375q-0.4375 -0.484375 -1.125 -0.484375q-0.765625 0 -1.390625 0.53125q-0.609375 0.515625 -0.921875 1.5625zm10.537476 1.546875l1.171875 0.125q-0.4375 1.296875 -1.265625 1.921875q-0.8125 0.625 -1.84375 0.625q-1.140625 0 -1.84375 -0.71875q-0.6875 -0.734375 -0.6875 -2.046875q0 -1.125 0.4375 -2.21875q0.453125 -1.09375 1.28125 -1.65625q0.84375 -0.578125 1.921875 -0.578125q1.109375 0 1.765625 0.625q0.65625 0.625 0.65625 1.65625l-1.15625 0.078125q-0.015625 -0.65625 -0.390625 -1.015625q-0.375 -0.375 -0.984375 -0.375q-0.703125 0 -1.234375 0.453125q-0.515625 0.4375 -0.8125 1.359375q-0.296875 0.90625 -0.296875 1.75q0 0.890625 0.390625 1.34375q0.390625 0.4375 0.96875 0.4375q0.5625 0 1.078125 -0.4375q0.53125 -0.4375 0.84375 -1.328125zm4.6484375 1.5625l-0.203125 0.953125q-0.421875 0.109375 -0.8125 0.109375q-0.703125 0 -1.125 -0.34375q-0.3125 -0.25 -0.3125 -0.703125q0 -0.234375 0.171875 -1.046875l0.828125 -4.015625l-0.921875 0l0.1875 -0.90625l0.9375 0l0.34375 -1.703125l1.359375 -0.8124962l-0.53125 2.5156212l1.15625 0l-0.1875 0.90625l-1.15625 0l-0.796875 3.8125q-0.15625 0.734375 -0.15625 0.875q0 0.21875 0.109375 0.328125q0.125 0.109375 0.40625 0.109375q0.390625 0 0.703125 -0.078125z" fill-rule="nonzero"/><path fill="#000000" fill-opacity="0.0" d="m418.4987 156.69292l-110.04724 -39.905518" fill-rule="evenodd"/><path stroke="#000000" stroke-width="1.0" stroke-linejoin="round" stroke-linecap="butt" d="m418.4987 156.69292l-104.40665 -37.860115" fill-rule="evenodd"/><path fill="#000000" stroke="#000000" stroke-width="1.0" stroke-linecap="butt" d="m314.65512 117.280014l-4.8293457 0.0057525635l3.703186 3.0998306z" fill-rule="evenodd"/><path fill="#000000" fill-opacity="0.0" d="m308.53018 156.68767l109.88977 0l0 16.15747l-109.88977 0z" fill-rule="evenodd"/><path fill="#000000" d="m347.25354 169.48767l2.0 -9.546875l1.5625 0l0.96875 6.1875q0.1875 1.21875 0.25 2.34375q0.390625 -0.96875 1.328125 -2.609375l3.34375 -5.921875l1.59375 0l-2.0 9.546875l-1.25 0l1.0 -4.640625q0.34375 -1.609375 0.984375 -3.609375q-0.40625 0.9375 -1.015625 2.015625l-3.546875 6.234375l-1.234375 0l-0.953125 -6.125q-0.140625 -0.828125 -0.1875 -1.953125q-0.171875 1.265625 -0.328125 2.0l-1.265625 6.078125l-1.25 0zm16.039948 -2.34375l1.15625 0.109375q-0.25 0.859375 -1.140625 1.625q-0.890625 0.765625 -2.125 0.765625q-0.765625 0 -1.40625 -0.34375q-0.640625 -0.359375 -0.984375 -1.03125q-0.328125 -0.6875 -0.328125 -1.546875q0 -1.140625 0.515625 -2.203125q0.53125 -1.0625 1.359375 -1.578125q0.84375 -0.515625 1.8125 -0.515625q1.234375 0 1.96875 0.765625q0.75 0.765625 0.75 2.09375q0 0.5 -0.09375 1.046875l-5.09375 0q-0.03125 0.1875 -0.03125 0.359375q0 0.96875 0.4375 1.484375q0.453125 0.5 1.109375 0.5q0.59375 0 1.171875 -0.390625q0.59375 -0.390625 0.921875 -1.140625zm-3.421875 -1.71875l3.875 0q0.015625 -0.1875 0.015625 -0.265625q0 -0.875 -0.453125 -1.34375q-0.4375 -0.484375 -1.125 -0.484375q-0.765625 0 -1.390625 0.53125q-0.609375 0.515625 -0.921875 1.5625zm5.8656006 1.703125l1.1875 -0.078125q0 0.515625 0.15625 0.875q0.15625 0.359375 0.578125 0.59375q0.421875 0.21875 0.96875 0.21875q0.78125 0 1.171875 -0.3125q0.390625 -0.3125 0.390625 -0.734375q0 -0.3125 -0.234375 -0.578125q-0.234375 -0.28125 -1.171875 -0.671875q-0.9375 -0.40625 -1.1875 -0.578125q-0.4375 -0.265625 -0.671875 -0.625q-0.21875 -0.359375 -0.21875 -0.828125q0 -0.8125 0.65625 -1.390625q0.65625 -0.59375 1.828125 -0.59375q1.296875 0 1.96875 0.609375q0.6875 0.59375 0.71875 1.578125l-1.15625 0.078125q-0.03125 -0.625 -0.453125 -0.984375q-0.40625 -0.375 -1.171875 -0.375q-0.609375 0 -0.953125 0.28125q-0.328125 0.28125 -0.328125 0.609375q0 0.3125 0.296875 0.5625q0.1875 0.171875 1.0 0.53125q1.359375 0.578125 1.703125 0.921875q0.5625 0.53125 0.5625 1.3125q0 0.515625 -0.3125 1.015625q-0.3125 0.484375 -0.96875 0.78125q-0.640625 0.296875 -1.515625 0.296875q-1.203125 0 -2.046875 -0.59375q-0.84375 -0.59375 -0.796875 -1.921875zm6.6640625 0l1.1875 -0.078125q0 0.515625 0.15625 0.875q0.15625 0.359375 0.578125 0.59375q0.421875 0.21875 0.96875 0.21875q0.78125 0 1.171875 -0.3125q0.390625 -0.3125 0.390625 -0.734375q0 -0.3125 -0.234375 -0.578125q-0.234375 -0.28125 -1.171875 -0.671875q-0.9375 -0.40625 -1.1875 -0.578125q-0.4375 -0.265625 -0.671875 -0.625q-0.21875 -0.359375 -0.21875 -0.828125q0 -0.8125 0.65625 -1.390625q0.65625 -0.59375 1.828125 -0.59375q1.296875 0 1.96875 0.609375q0.6875 0.59375 0.71875 1.578125l-1.15625 0.078125q-0.03125 -0.625 -0.453125 -0.984375q-0.40625 -0.375 -1.171875 -0.375q-0.609375 0 -0.953125 0.28125q-0.328125 0.28125 -0.328125 0.609375q0 0.3125 0.296875 0.5625q0.1875 0.171875 1.0 0.53125q1.359375 0.578125 1.703125 0.921875q0.5625 0.53125 0.5625 1.3125q0 0.515625 -0.3125 1.015625q-0.3125 0.484375 -0.96875 0.78125q-0.640625 0.296875 -1.515625 0.296875q-1.203125 0 -2.046875 -0.59375q-0.84375 -0.59375 -0.796875 -1.921875zm11.2265625 1.5q-0.625 0.53125 -1.1875 0.78125q-0.5625 0.234375 -1.203125 0.234375q-0.96875 0 -1.5625 -0.5625q-0.578125 -0.5625 -0.578125 -1.4375q0 -0.578125 0.265625 -1.015625q0.265625 -0.453125 0.703125 -0.71875q0.4375 -0.28125 1.0625 -0.390625q0.40625 -0.078125 1.515625 -0.125q1.109375 -0.046875 1.59375 -0.234375q0.125 -0.484375 0.125 -0.8125q0 -0.40625 -0.296875 -0.640625q-0.40625 -0.328125 -1.1875 -0.328125q-0.75 0 -1.21875 0.328125q-0.46875 0.328125 -0.6875 0.9375l-1.1875 -0.109375q0.359375 -1.015625 1.140625 -1.5625q0.796875 -0.546875 2.0 -0.546875q1.28125 0 2.03125 0.609375q0.578125 0.453125 0.578125 1.1875q0 0.546875 -0.15625 1.28125l-0.390625 1.71875q-0.1875 0.8125 -0.1875 1.328125q0 0.328125 0.15625 0.9375l-1.203125 0q-0.09375 -0.34375 -0.125 -0.859375zm0.421875 -2.640625q-0.234375 0.09375 -0.53125 0.15625q-0.28125 0.046875 -0.9375 0.109375q-1.03125 0.078125 -1.453125 0.21875q-0.421875 0.140625 -0.640625 0.453125q-0.21875 0.296875 -0.21875 0.671875q0 0.5 0.34375 0.828125q0.34375 0.3125 0.984375 0.3125q0.578125 0 1.109375 -0.3125q0.546875 -0.3125 0.859375 -0.859375q0.3125 -0.5625 0.484375 -1.578125zm2.2562256 4.125l1.1875 0.109375q0 0.40625 0.109375 0.609375q0.109375 0.203125 0.34375 0.3125q0.328125 0.140625 0.828125 0.140625q1.0625 0 1.53125 -0.546875q0.3125 -0.375 0.578125 -1.625l0.109375 -0.5625q-0.921875 0.9375 -1.953125 0.9375q-1.046875 0 -1.75 -0.765625q-0.703125 -0.78125 -0.703125 -2.1875q0 -1.171875 0.546875 -2.140625q0.5625 -0.984375 1.328125 -1.46875q0.765625 -0.5 1.578125 -0.5q1.359375 0 2.09375 1.28125l0.234375 -1.125l1.078125 0l-1.390625 6.671875q-0.21875 1.09375 -0.59375 1.703125q-0.375 0.625 -1.03125 0.953125q-0.65625 0.34375 -1.53125 0.34375q-0.828125 0 -1.4375 -0.21875q-0.59375 -0.203125 -0.890625 -0.625q-0.296875 -0.40625 -0.296875 -0.953125q0 -0.15625 0.03125 -0.34375zm1.46875 -3.6875q0 0.71875 0.140625 1.078125q0.203125 0.5 0.5625 0.765625q0.359375 0.25 0.796875 0.25q0.578125 0 1.140625 -0.40625q0.578125 -0.40625 0.9375 -1.25q0.359375 -0.859375 0.359375 -1.625q0 -0.859375 -0.484375 -1.359375q-0.46875 -0.515625 -1.15625 -0.515625q-0.4375 0 -0.84375 0.234375q-0.390625 0.234375 -0.75 0.703125q-0.34375 0.46875 -0.53125 1.140625q-0.171875 0.65625 -0.171875 0.984375zm11.084351 0.71875l1.15625 0.109375q-0.25 0.859375 -1.140625 1.625q-0.890625 0.765625 -2.125 0.765625q-0.765625 0 -1.40625 -0.34375q-0.640625 -0.359375 -0.984375 -1.03125q-0.328125 -0.6875 -0.328125 -1.546875q0 -1.140625 0.515625 -2.203125q0.53125 -1.0625 1.359375 -1.578125q0.84375 -0.515625 1.8125 -0.515625q1.234375 0 1.96875 0.765625q0.75 0.765625 0.75 2.09375q0 0.5 -0.09375 1.046875l-5.09375 0q-0.03125 0.1875 -0.03125 0.359375q0 0.96875 0.4375 1.484375q0.453125 0.5 1.109375 0.5q0.59375 0 1.171875 -0.390625q0.59375 -0.390625 0.921875 -1.140625zm-3.421875 -1.71875l3.875 0q0.015625 -0.1875 0.015625 -0.265625q0 -0.875 -0.453125 -1.34375q-0.4375 -0.484375 -1.125 -0.484375q-0.765625 0 -1.390625 0.53125q-0.609375 0.515625 -0.921875 1.5625zm5.8656006 1.703125l1.1875 -0.078125q0 0.515625 0.15625 0.875q0.15625 0.359375 0.578125 0.59375q0.421875 0.21875 0.96875 0.21875q0.78125 0 1.171875 -0.3125q0.390625 -0.3125 0.390625 -0.734375q0 -0.3125 -0.234375 -0.578125q-0.234375 -0.28125 -1.171875 -0.671875q-0.9375 -0.40625 -1.1875 -0.578125q-0.4375 -0.265625 -0.671875 -0.625q-0.21875 -0.359375 -0.21875 -0.828125q0 -0.8125 0.65625 -1.390625q0.65625 -0.59375 1.828125 -0.59375q1.296875 0 1.96875 0.609375q0.6875 0.59375 0.71875 1.578125l-1.15625 0.078125q-0.03125 -0.625 -0.453125 -0.984375q-0.40625 -0.375 -1.171875 -0.375q-0.609375 0 -0.953125 0.28125q-0.328125 0.28125 -0.328125 0.609375q0 0.3125 0.296875 0.5625q0.1875 0.171875 1.0 0.53125q1.359375 0.578125 1.703125 0.921875q0.5625 0.53125 0.5625 1.3125q0 0.515625 -0.3125 1.015625q-0.3125 0.484375 -0.96875 0.78125q-0.640625 0.296875 -1.515625 0.296875q-1.203125 0 -2.046875 -0.59375q-0.84375 -0.59375 -0.796875 -1.921875z" fill-rule="nonzero"/></g></svg>